<svg width="113" height="46" viewBox="0 0 113 46" fill="none" xmlns="http://www.w3.org/2000/svg">
<path d="M98.7239 24.0616V18.2017H99.1167C99.6842 20.1004 100.448 21.4317 101.408 22.1956C102.369 22.9595 103.569 23.3414 105.009 23.3414C107.236 23.3414 108.349 22.6321 108.349 21.2135C108.349 20.6024 108.076 20.1441 107.53 19.8385C106.679 19.3584 105.588 18.9874 104.256 18.7255C102.772 18.3326 101.528 17.8088 100.524 17.1541C99.3241 16.3684 98.7239 15.1244 98.7239 13.4221C98.7239 11.7197 99.2477 10.3666 100.295 9.36266C101.343 8.3369 102.74 7.82402 104.486 7.82402C105.555 7.82402 106.657 8.075 107.792 8.57697C108.207 8.75157 108.523 8.83887 108.741 8.83887C108.96 8.83887 109.145 8.76248 109.298 8.60971C109.451 8.45694 109.636 8.17322 109.854 7.75854H110.215V12.7673H109.822C108.709 9.9301 106.985 8.5115 104.649 8.5115C103.624 8.5115 102.86 8.69701 102.358 9.06803C101.856 9.41723 101.605 9.86463 101.605 10.4102C101.605 10.7376 101.681 10.9995 101.834 11.1959C101.987 11.3705 102.107 11.5015 102.194 11.5888C102.281 11.6761 102.423 11.7743 102.62 11.8834C102.816 11.9707 102.98 12.0471 103.111 12.1126C103.242 12.1562 103.438 12.2217 103.7 12.309C103.984 12.3963 104.191 12.4509 104.322 12.4727C105.806 12.8437 106.875 13.1711 107.53 13.4548C108.185 13.7167 108.807 14.0441 109.396 14.4369C110.597 15.2663 111.197 16.6085 111.197 18.4636C111.197 20.2969 110.651 21.6936 109.56 22.6539C108.469 23.5924 106.974 24.0616 105.075 24.0616C103.722 24.0616 102.412 23.7452 101.146 23.1122C100.885 22.9376 100.677 22.8503 100.524 22.8503C100.044 22.8503 99.575 23.2541 99.1167 24.0616H98.7239Z" fill="#2C1A0E"/>
<path d="M87.4015 24.0616C84.5861 24.0616 82.4691 23.3414 81.0505 21.9009C79.6537 20.4387 78.9553 18.4199 78.9553 15.8446C78.9553 13.2474 79.741 11.2614 81.3124 9.88641C82.9056 8.51145 84.9244 7.82397 87.3688 7.82397C92.323 7.82397 94.7019 10.312 94.5054 15.288H85.2736V16.5648C85.2736 18.7036 85.5464 20.3186 86.092 21.4099C86.6376 22.5011 87.587 23.0467 88.9401 23.0467C91.4718 23.0467 93.1305 21.6936 93.9162 18.9873L94.5054 19.0855C94.0908 20.6569 93.3378 21.8791 92.2466 22.7521C91.1772 23.6251 89.5621 24.0616 87.4015 24.0616ZM85.3063 14.6333H88.6782V13.0292C88.6782 11.2614 88.5691 10.061 88.3509 9.42809C88.1544 8.77335 87.7398 8.44598 87.1069 8.44598C86.4958 8.44598 86.0375 8.79518 85.7319 9.49357C85.4482 10.1701 85.3063 11.3487 85.3063 13.0292V14.6333Z" fill="#2C1A0E"/>
<path d="M74.707 8.15137V8.74063L66.9483 23.145H67.3739C69.2072 23.145 70.6476 22.6648 71.6952 21.7045C72.7428 20.7442 73.5612 19.1838 74.1505 17.0231H74.6088L74.085 23.7342H60.3354V23.2432L68.2251 8.74063H67.865C65.6607 8.74063 64.122 9.10074 63.249 9.82096C62.3979 10.5412 61.634 12.0798 60.9575 14.4369H60.5319L60.9575 8.15137H74.707Z" fill="#2C1A0E"/>
<path d="M46.3442 8.15137H54.3648V23.145H56.1981V23.7342H46.4752V23.145H48.2757V8.74063H46.3442V8.15137Z" fill="#2C1A0E"/>
<path d="M33.7461 16.041H34.6955V13.5202C34.6955 11.4469 34.5754 10.061 34.3354 9.36262C34.1171 8.6424 33.6806 8.28229 33.0259 8.28229C32.633 8.28229 32.2729 8.39142 31.9455 8.60967C31.64 8.80609 31.4872 9.08981 31.4872 9.46083C31.4872 9.81003 31.5527 10.1701 31.6836 10.5412H32.5021C32.6767 10.9995 32.764 11.556 32.764 12.2107C32.764 12.8437 32.4912 13.4002 31.9455 13.8803C31.3999 14.3387 30.7124 14.5678 29.8831 14.5678C28.0062 14.5678 27.0677 13.6621 27.0677 11.8506C27.0677 9.1662 29.3484 7.82397 33.9098 7.82397C36.5069 7.82397 38.2965 8.27138 39.2787 9.1662C40.2826 10.0392 40.7846 11.6542 40.7846 14.0113V20.6569C40.7846 21.7918 41.101 22.3592 41.7339 22.3592C42.476 22.3592 42.9125 21.2353 43.0434 18.9873L43.5345 19.0201C43.4472 20.9406 43.0871 22.261 42.4542 22.9813C41.8212 23.7015 40.7846 24.0616 39.3441 24.0616C36.7252 24.0616 35.2193 23.2541 34.8264 21.639C34.5427 22.4684 34.1171 23.0795 33.5497 23.4723C32.9822 23.8652 32.1529 24.0616 31.0616 24.0616C27.8316 24.0616 26.2166 22.7412 26.2166 20.1004C26.2166 18.5508 26.8276 17.4923 28.0498 16.9249C29.2938 16.3356 31.1926 16.041 33.7461 16.041ZM32.4366 20.0676C32.4366 21.2025 32.4912 21.9337 32.6003 22.261C32.7312 22.5884 32.9604 22.7521 33.2878 22.7521C33.637 22.7521 33.9534 22.4793 34.2371 21.9337C34.5427 21.3662 34.6955 20.5914 34.6955 19.6093V16.5648H34.4663C33.1132 16.5648 32.4366 17.5578 32.4366 19.5439V20.0676Z" fill="#2C1A0E"/>
<path d="M10.2467 12.1454H8.51164V23.1123H10.6396V23.7343H0V23.1123H2.12791V1.44036H0V0.818359H9.8866C12.7238 0.818359 14.7317 0.971133 15.9102 1.27668C17.1106 1.5604 17.9508 1.9096 18.431 2.32427C19.4786 3.17543 20.0024 4.52856 20.0024 6.38367C20.0024 8.23877 19.544 9.57008 18.6274 10.3776C17.7108 11.1633 16.314 11.6325 14.4371 11.7853V11.8835C16.2049 12.1236 17.438 12.6474 18.1363 13.4549C18.8347 14.2624 19.1839 15.6155 19.1839 17.5143V19.2493C19.1839 20.3842 19.2385 21.1481 19.3476 21.5409C19.4786 21.9338 19.7405 22.1302 20.1333 22.1302C20.5262 22.1302 20.8317 21.9556 21.05 21.6064C21.29 21.2354 21.5083 20.4715 21.7047 19.3148L22.2612 19.3803C22.0212 21.2354 21.5956 22.4794 20.9845 23.1123C20.3952 23.7452 19.2058 24.0617 17.4161 24.0617C15.6265 24.0617 14.3498 23.647 13.5859 22.8177C12.8439 21.9665 12.4728 20.3842 12.4728 18.0708V15.681C12.4728 14.4588 12.3091 13.564 11.9818 12.9966C11.6762 12.4291 11.0979 12.1454 10.2467 12.1454ZM8.51164 1.44036V11.5234H9.55923C10.8032 11.5234 11.7199 11.1415 12.3091 10.3776C12.9202 9.61373 13.2258 8.36972 13.2258 6.64557V5.69619C13.2258 3.97203 12.9312 2.83715 12.3419 2.29153C11.7744 1.72409 10.8578 1.44036 9.59197 1.44036H8.51164Z" fill="#2C1A0E"/>
<path d="M49.3038 2.27026C49.3131 2.57899 49.3177 2.83259 49.3177 2.94951L49.3037 2.99039C49.2754 3.00865 49.2615 3.01314 49.2355 3.01539C49.2094 3.01764 49.1724 3.01764 49.1467 3.00837C49.1071 2.98112 49.0917 2.94781 49.0768 2.91973C49.0416 2.85384 48.9782 2.75686 48.7794 2.41498C48.7283 2.32702 48.7141 2.28857 48.6574 2.17085C48.5217 1.88931 48.4223 1.67539 48.3797 1.63421C48.3212 1.57752 48.2386 1.54709 48.1101 1.49324C47.8672 1.39137 47.7229 1.3378 47.622 1.31874C47.5492 1.30498 47.2675 1.28061 47.0697 1.29837C46.8897 1.31452 46.771 1.35022 46.6489 1.38027C46.5297 1.40963 46.4363 1.44599 46.3544 1.48015C46.2736 1.51387 46.2237 1.54772 46.1579 1.59226L46.1554 1.59394C46.0248 1.68245 45.9731 1.74926 45.9055 1.8301C45.8233 1.92828 45.7396 2.09602 45.6459 2.26631C45.5946 2.35945 45.5271 2.45254 45.5761 2.90978C45.5901 3.04067 45.612 3.08951 45.6252 3.12693C45.6605 3.2275 45.7073 3.3488 45.7445 3.41773C45.7961 3.51312 45.823 3.60509 45.8756 3.67665C45.9457 3.77204 46.0049 3.83826 46.0438 3.92637C46.072 3.99008 46.1288 4.04114 46.1749 4.13098C46.2356 4.24899 46.2684 4.31517 46.3268 4.40107C46.4096 4.52263 46.5383 4.71439 46.6266 4.78277C46.7643 4.88947 46.8329 4.94878 46.9491 5.03923C47.0312 5.10314 47.1313 5.16322 47.1852 5.20037C47.2414 5.23914 47.3088 5.26863 47.3911 5.33678C47.4706 5.40267 47.5574 5.46519 47.6858 5.55713C47.7746 5.6207 47.867 5.70607 47.9569 5.76597C48.0322 5.81612 48.1186 5.90597 48.2189 5.91573C48.3128 5.92486 48.4992 5.93401 48.6 5.97937C48.6303 5.993 48.8973 6.01001 49.2843 5.99736C49.4261 5.99273 49.463 5.98095 49.5795 5.97924C49.8856 5.97474 50.1129 5.95507 50.236 5.95198C50.5997 5.94285 50.6835 5.9258 50.9299 5.92248C51.0964 5.92023 51.3929 5.92373 51.5553 5.91791C51.7455 5.9111 51.8691 5.91537 52.0243 5.90429C52.1197 5.89747 52.2287 5.89847 52.3492 5.89066C52.5234 5.87935 52.7317 5.88894 52.8072 5.8634C52.8681 5.84283 53.0069 5.85402 53.4019 5.74056C53.5041 5.71119 53.6798 5.69199 53.9143 5.62466C54.0563 5.58391 54.2089 5.58582 54.3701 5.53853C54.6046 5.46972 54.8173 5.39452 54.8888 5.34755C55.034 5.25223 55.176 5.22648 55.3075 5.13408C55.4502 5.03392 55.5841 4.92947 55.6837 4.85711C55.7589 4.80253 55.8491 4.75483 55.9366 4.6683C56.0673 4.53898 56.1744 4.48388 56.2451 4.37082C56.3246 4.24354 56.4328 4.11521 56.4928 4.0099C56.5303 3.94402 56.5436 3.87931 56.5793 3.83275C56.6333 3.76223 56.658 3.65858 56.7056 3.59203C56.7266 3.56259 56.7575 3.31232 56.7381 2.95489C56.7265 2.73992 56.6953 2.64776 56.6773 2.56304C56.656 2.46301 56.6458 2.31835 56.5319 2.14012C56.4595 2.02681 56.4096 1.8746 56.3191 1.75869C56.2166 1.6274 56.1466 1.57493 55.9986 1.51388C55.9216 1.48213 55.7271 1.41318 55.4908 1.33666C55.3933 1.30511 55.2164 1.2831 54.9715 1.30293C54.8319 1.31424 54.7351 1.32462 54.6565 1.35983C54.5687 1.39912 54.503 1.41888 54.4287 1.44123L54.4287 1.44123L54.42 1.44384C54.2618 1.49147 54.0991 1.58859 54.0072 1.64341L54.0061 1.64409C53.9145 1.69878 53.8496 1.84398 53.8125 1.93912L53.811 1.94286C53.7768 2.03049 53.6827 2.27178 53.5267 2.37982C53.3724 2.48673 53.1454 2.68453 52.9774 2.74067C52.8956 2.76799 52.8402 2.79042 52.7482 2.79967C52.6135 2.81323 52.4092 2.77671 52.3767 2.75872C52.4146 2.7083 52.5219 2.61769 52.6098 2.47903C52.6977 2.34037 52.8459 2.09304 52.9271 1.96242C53.0223 1.81832 53.0937 1.73605 53.1791 1.59558C53.2233 1.52274 53.2569 1.43976 53.2936 1.35479C53.3308 1.26846 53.3576 1.1971 53.3566 1.08613C53.3541 0.837023 53.3744 0.679587 53.3144 0.546288C53.2837 0.478084 53.1989 0.375196 53.106 0.321575C53.0311 0.278309 52.9656 0.200999 52.7171 0.151167C52.5818 0.124049 52.4 0.0730653 52.1954 0.0307714C52.0534 0.00140479 51.8427 -0.0208357 51.5012 0.031589C51.3055 0.0616369 51.0693 0.115601 50.9393 0.147216C50.8093 0.178831 50.7862 0.187961 50.715 0.208538C50.3931 0.301475 50.263 0.297522 50.1004 0.4062C49.9444 0.510516 49.8846 0.555253 49.8225 0.646992C49.7241 0.792599 49.6197 0.896359 49.57 0.987672C49.4808 1.15181 49.3844 1.29972 49.3456 1.39867C49.3037 1.50557 49.2542 1.59674 49.278 1.95793C49.2851 2.06401 49.2993 2.12321 49.3038 2.27026Z" fill="#2C1A0E"/>
<path d="M105.004 31.9719C106.263 31.9719 107.401 32.2661 108.407 32.8635C109.423 33.4427 110.224 34.2419 110.805 35.2551L110.913 35.4475C111.393 36.331 111.655 37.3105 111.71 38.3792L111.724 38.3831V38.6975L111.726 38.9016L111.724 38.9026V44.0256C111.724 44.3803 111.604 44.6999 111.354 44.9504L111.347 44.9573L111.339 44.9641C111.086 45.1934 110.771 45.2971 110.428 45.2971C110.084 45.2971 109.769 45.1935 109.517 44.9641L109.503 44.9504C109.252 44.6999 109.133 44.3803 109.133 44.0256V43.7395C108.789 44.0665 108.406 44.3575 107.98 44.6067L107.979 44.6077C107.047 45.1459 105.991 45.4104 104.822 45.4104C103.591 45.4103 102.474 45.1223 101.482 44.5383L101.479 44.5354C100.495 43.94 99.7124 43.1339 99.1338 42.1233L99.1309 42.1184C98.5643 41.1003 98.2852 39.9583 98.2852 38.7024C98.2852 37.4302 98.5725 36.2787 99.1562 35.259L99.1582 35.2551C99.7541 34.2424 100.562 33.4429 101.578 32.8635C102.598 32.2665 103.744 31.972 105.004 31.9719ZM105.004 34.3782C104.212 34.3782 103.508 34.571 102.88 34.9524L102.874 34.9563C102.241 35.3273 101.74 35.834 101.366 36.4827C100.997 37.1237 100.808 37.8603 100.808 38.7024C100.808 39.5264 100.995 40.2631 101.365 40.9211C101.739 41.5701 102.241 42.0774 102.874 42.4485C103.503 42.8168 104.209 43.0031 105.004 43.0032C105.815 43.0032 106.52 42.8161 107.131 42.4504L107.134 42.4485C107.766 42.0782 108.258 41.5728 108.616 40.927L108.618 40.925C108.99 40.266 109.178 39.5279 109.178 38.7024C109.178 37.8603 108.989 37.1237 108.62 36.4827L108.616 36.4778C108.258 35.8319 107.766 35.3266 107.134 34.9563L107.125 34.9504C106.515 34.5718 105.812 34.3782 105.004 34.3782Z" fill="#2C1A0E" stroke="#2C1A0E" stroke-width="0.820796"/>
<path d="M95.2783 31.9719C95.9864 31.972 96.5878 32.073 97.042 32.3167C97.2794 32.4441 97.4809 32.6217 97.5986 32.8645C97.7179 33.1106 97.7287 33.3777 97.668 33.6389L97.665 33.6487C97.5908 33.9356 97.44 34.2058 97.1611 34.3567L97.1621 34.3577C97.1596 34.3591 97.1568 34.3601 97.1543 34.3616C97.1516 34.363 97.1492 34.365 97.1465 34.3665L97.1455 34.3655C96.9246 34.4869 96.6735 34.5209 96.4199 34.5022H96.417C96.2286 34.4872 96.0103 34.4724 95.7617 34.4573L95.749 34.4563C94.9762 34.3851 94.3056 34.472 93.7275 34.7024L93.7227 34.7043C93.1601 34.9204 92.7165 35.2517 92.3828 35.6995L92.3838 35.7004C92.0709 36.1395 91.9072 36.67 91.9072 37.3108V44.1331C91.9072 44.4809 91.8116 44.8078 91.5703 45.0569C91.3271 45.3079 91.0029 45.4104 90.6562 45.4104C90.3098 45.4103 89.9863 45.3078 89.7432 45.0569C89.5018 44.8078 89.4063 44.4809 89.4062 44.1331V33.386C89.4063 33.038 89.5017 32.7103 89.7432 32.4612C89.9863 32.2106 90.3099 32.1087 90.6562 32.1086C91.0028 32.1086 91.3271 32.2104 91.5703 32.4612C91.7895 32.6873 91.8869 32.9783 91.9033 33.2903C92.1541 33.0584 92.4256 32.8514 92.7188 32.6711L92.7227 32.6692C93.4964 32.2035 94.3516 31.9719 95.2783 31.9719Z" fill="#2C1A0E" stroke="#2C1A0E" stroke-width="0.820796"/>
<path d="M84.6997 31.9719C85.4279 31.9719 86.044 32.0731 86.5083 32.3147C86.7503 32.4406 86.9578 32.6169 87.0796 32.8606C87.2034 33.1086 87.2141 33.3785 87.1509 33.6418L87.1489 33.6516C87.0715 33.9422 86.9147 34.2111 86.6313 34.3596L86.6323 34.3606C86.6306 34.3616 86.6282 34.3616 86.6265 34.3625C86.623 34.3643 86.6202 34.3676 86.6167 34.3694L86.6157 34.3684C86.392 34.4877 86.1375 34.5216 85.8794 34.5032L85.8774 34.5022C85.683 34.4872 85.4572 34.4724 85.2007 34.4573L85.188 34.4563C84.3875 34.3848 83.6922 34.4724 83.0923 34.7043L83.0874 34.7063C82.5036 34.9237 82.045 35.2563 81.7007 35.7043L81.7017 35.7053C81.3793 36.1441 81.2114 36.6728 81.2114 37.3108V44.1331C81.2114 44.4843 81.1112 44.8132 80.8628 45.0618C80.6143 45.3103 80.2854 45.4104 79.9341 45.4104C79.5828 45.4103 79.2538 45.3104 79.0054 45.0618C78.757 44.8132 78.6578 44.4843 78.6577 44.1331V33.386C78.6577 33.0347 78.7571 32.7059 79.0054 32.4573C79.2538 32.2087 79.5828 32.1087 79.9341 32.1086C80.2854 32.1086 80.6143 32.2086 80.8628 32.4573C81.093 32.6876 81.1947 32.9867 81.2085 33.3088C81.4737 33.068 81.7615 32.8538 82.0728 32.6682L82.0757 32.6663C82.8709 32.2021 83.7487 31.972 84.6997 31.9719Z" fill="#2C1A0E" stroke="#2C1A0E" stroke-width="0.820796"/>
<path d="M70.5479 31.9719C71.7629 31.9719 72.8398 32.25 73.7627 32.8215C74.6967 33.3757 75.4189 34.1518 75.9238 35.1399C76.4279 36.1265 76.6748 37.242 76.6748 38.4758C76.6748 38.8113 76.5655 39.1176 76.3262 39.3557L76.3184 39.3635L76.3105 39.3704C76.0695 39.5861 75.7678 39.6789 75.4443 39.679H66.7197C66.8069 40.1416 66.9578 40.5645 67.1719 40.9495C67.5463 41.5955 68.0487 42.1008 68.6826 42.4709C69.3105 42.8374 70.0422 43.0266 70.8896 43.0266C71.3872 43.0266 71.8873 42.9439 72.3916 42.7776C72.9208 42.5926 73.3214 42.3732 73.6055 42.1292L73.6133 42.1213H73.6143C73.8458 41.9331 74.1164 41.8326 74.4131 41.8264C74.7172 41.8048 75.0037 41.8822 75.2441 42.0735L75.2559 42.0823L75.2666 42.092C75.5174 42.3223 75.6842 42.6118 75.6934 42.9543H75.6943C75.6946 42.9576 75.6941 42.9609 75.6943 42.9641C75.6945 42.9706 75.6953 42.9771 75.6953 42.9836H75.6943C75.71 43.3302 75.5594 43.6222 75.2979 43.8401L75.2988 43.8411C74.7535 44.3013 74.0714 44.6775 73.2637 44.9768L73.2568 44.9797V44.9788C72.4454 45.2636 71.6558 45.4104 70.8896 45.4104C69.5993 45.4104 68.4357 45.1319 67.4111 44.5657L67.4043 44.5627C66.3998 43.9826 65.6047 43.1817 65.0225 42.1682L65.0195 42.1643C64.45 41.1446 64.1709 39.9868 64.1709 38.7024C64.1709 37.4077 64.4329 36.2514 64.9707 35.2463L64.9717 35.2444C65.5213 34.2314 66.2774 33.4296 67.2373 32.8469C68.2045 32.2599 69.3126 31.9719 70.5479 31.9719ZM70.5479 34.3557C69.7497 34.3557 69.068 34.5426 68.4883 34.9045C67.9039 35.2695 67.4446 35.7762 67.1123 36.4358L67.1133 36.4368C66.9656 36.737 66.8518 37.0608 66.7715 37.4084H74.1455C74.0726 37.0275 73.9573 36.6727 73.7988 36.343C73.4966 35.7145 73.0696 35.2306 72.5156 34.8811L72.5117 34.8792C71.9818 34.5365 71.3331 34.3557 70.5479 34.3557Z" fill="#2C1A0E" stroke="#2C1A0E" stroke-width="0.820796"/>
<path d="M57.5518 27.9998C57.9136 27.9998 58.2411 28.1172 58.499 28.3689C58.7577 28.6214 58.8818 28.9458 58.8818 29.3074V32.4636H61.1348C61.4616 32.4637 61.757 32.5719 61.9941 32.7957H61.9951C61.9979 32.7981 62.0002 32.801 62.0029 32.8035C62.0054 32.8058 62.0083 32.808 62.0107 32.8103H62.0098C62.2542 33.0331 62.3701 33.3281 62.3701 33.656C62.3701 33.9839 62.2448 34.2731 62.0107 34.5017L62.0029 34.5095L61.9951 34.5164C61.7536 34.7286 61.4565 34.8259 61.1348 34.8259H58.8818V40.5593C58.8819 41.2513 59.0875 41.7899 59.4775 42.2097C59.8641 42.6109 60.3573 42.8181 60.9932 42.8181H61.6299C61.9836 42.8182 62.3008 42.9419 62.543 43.2019C62.78 43.4566 62.8887 43.776 62.8887 44.1257C62.8886 44.4991 62.7472 44.8267 62.4688 45.0759L62.4619 45.0818L62.4541 45.0876C62.1808 45.31 61.8492 45.4099 61.4883 45.4099H60.9932C60.0948 45.4099 59.276 45.2022 58.5479 44.7791L58.5439 44.7771C57.8382 44.3569 57.2779 43.7833 56.8662 43.0632L56.8643 43.0603C56.4494 42.3177 56.2461 41.4803 56.2461 40.5593V34.8259H55.125C54.8031 34.8259 54.5062 34.7286 54.2646 34.5164L54.2568 34.5095L54.249 34.5017C54.0148 34.273 53.8896 33.9841 53.8896 33.656C53.8897 33.328 54.0053 33.0331 54.25 32.8103H54.249C54.2513 32.808 54.2535 32.8057 54.2559 32.8035C54.2588 32.8009 54.2617 32.7982 54.2646 32.7957H54.2656C54.5028 32.572 54.7982 32.4636 55.125 32.4636H56.2461V29.3074C56.2461 28.9576 56.3547 28.6383 56.5918 28.3835L56.5986 28.3757L56.6055 28.3689C56.8633 28.1173 57.1902 27.9999 57.5518 27.9998Z" fill="#2C1A0E" stroke="#2C1A0E" stroke-width="0.820796"/>
<path d="M39.4624 31.9719C40.7422 31.9719 41.8987 32.2661 42.9214 32.8625H42.9224C43.9546 33.4408 44.7691 34.2391 45.3608 35.2522H45.3618C45.9209 36.1852 46.2244 37.2298 46.2847 38.3772L46.2983 38.3811V38.6965L46.3013 38.9036L46.2983 38.9055V44.0256C46.2983 44.3826 46.1765 44.7034 45.9214 44.9534L45.9136 44.9602L45.9067 44.9661C45.6507 45.1942 45.3328 45.2971 44.9868 45.2971C44.6407 45.2971 44.3221 45.1943 44.0659 44.9661L44.0591 44.9602L44.0522 44.9534C43.7971 44.7033 43.6743 44.3827 43.6743 44.0256V43.7278C43.3207 44.0604 42.9261 44.3553 42.4868 44.6077L42.4849 44.6096C41.5381 45.1468 40.4652 45.4103 39.2778 45.4104C38.0261 45.4104 36.8904 45.1224 35.8823 44.5393L35.8784 44.5374C34.8781 43.9427 34.0803 43.1364 33.4907 42.1252L33.4888 42.1213C32.9114 41.1027 32.6265 39.9597 32.6265 38.7024C32.6265 37.4289 32.9194 36.2763 33.5142 35.2561L33.5171 35.2522C34.1233 34.2406 34.9441 33.4428 35.9751 32.8645C37.0135 32.2668 38.1796 31.9719 39.4624 31.9719ZM39.4624 34.3782C38.6532 34.3782 37.9326 34.5719 37.2915 34.9543L37.2866 34.9583C36.6401 35.3301 36.1287 35.8371 35.7485 36.4856C35.373 37.1262 35.1802 37.8616 35.1802 38.7024C35.1802 39.5251 35.3719 40.2605 35.7485 40.9182L35.897 41.1555C36.2583 41.6922 36.7209 42.1211 37.2866 42.4465C37.9285 42.8157 38.6505 43.0032 39.4624 43.0032C40.2913 43.0032 41.0117 42.8151 41.6353 42.4485L41.6382 42.4465C42.2834 42.0754 42.7856 41.5695 43.1499 40.9241L43.1509 40.9221C43.5289 40.2636 43.7212 39.5266 43.7212 38.7024C43.7212 37.8616 43.5283 37.1262 43.1528 36.4856L43.1499 36.4797C42.7856 35.8344 42.2833 35.3294 41.6382 34.9583L41.6294 34.9524C41.0067 34.5727 40.2885 34.3782 39.4624 34.3782Z" fill="#2C1A0E" stroke="#2C1A0E" stroke-width="0.820796"/>
<path d="M28.6465 26.5979C28.996 26.5979 29.31 26.7148 29.5586 26.9583C29.8277 27.205 29.9424 27.5379 29.9424 27.9006V38.7151C29.9105 39.9694 29.5979 41.1137 29.001 42.1389C28.42 43.1474 27.6192 43.9466 26.6045 44.5315L26.6035 44.5305C25.5981 45.1186 24.4679 45.4104 23.2227 45.4104C21.9622 45.4104 20.8165 45.1197 19.7959 44.5315L19.791 44.5286C18.7776 43.9281 17.9707 43.1145 17.376 42.093L17.374 42.0891C16.7909 41.0597 16.5039 39.8976 16.5039 38.6135C16.5039 37.3458 16.7826 36.1931 17.3486 35.1653L17.3516 35.1604C17.858 34.2666 18.5214 33.5366 19.3398 32.9749L19.6992 32.7444C20.6905 32.1389 21.8082 31.8392 23.041 31.8391C24.1141 31.8391 25.0958 32.0743 25.9766 32.55C26.4924 32.8198 26.9511 33.1465 27.3516 33.5276V27.9006C27.3516 27.5446 27.4612 27.2173 27.7197 26.9719V26.9709C27.9703 26.7182 28.2906 26.5979 28.6465 26.5979ZM23.2227 34.2629C22.429 34.263 21.723 34.4515 21.0947 34.8235C20.4636 35.1971 19.9614 35.7154 19.5869 36.387L19.585 36.3899C19.2149 37.0397 19.0264 37.7777 19.0264 38.6135C19.0264 39.4658 19.2156 40.2109 19.585 40.8596C19.9585 41.5155 20.461 42.0357 21.0947 42.426L21.334 42.5569C21.9009 42.8422 22.5281 42.9875 23.2227 42.9875C24.0332 42.9875 24.7374 42.7973 25.3477 42.428C25.9815 42.0383 26.4753 41.5194 26.834 40.8655L26.8379 40.8596C27.2073 40.2109 27.3965 39.4658 27.3965 38.6135C27.3965 37.7777 27.208 37.0397 26.8379 36.3899L26.833 36.3811C26.474 35.7127 25.9812 35.1963 25.3516 34.8235L25.3477 34.8215C24.7374 34.4522 24.0331 34.2629 23.2227 34.2629Z" fill="#2C1A0E" stroke="#2C1A0E" stroke-width="0.820796"/>
</svg>
