<svg width="114" height="46" viewBox="0 0 114 46" fill="none" xmlns="http://www.w3.org/2000/svg">
<path d="M100.361 24.0616V18.2017H100.754C101.321 20.1004 102.085 21.4317 103.045 22.1956C104.005 22.9595 105.206 23.3414 106.646 23.3414C108.872 23.3414 109.985 22.6321 109.985 21.2135C109.985 20.6024 109.713 20.1441 109.167 19.8385C108.316 19.3584 107.225 18.9874 105.893 18.7255C104.409 18.3326 103.165 17.8088 102.161 17.1541C100.961 16.3684 100.361 15.1244 100.361 13.4221C100.361 11.7197 100.885 10.3666 101.932 9.36266C102.98 8.3369 104.376 7.82402 106.122 7.82402C107.192 7.82402 108.294 8.075 109.429 8.57697C109.844 8.75157 110.16 8.83887 110.378 8.83887C110.597 8.83887 110.782 8.76248 110.935 8.60971C111.088 8.45694 111.273 8.17322 111.491 7.75854H111.851V12.7673H111.459C110.346 9.9301 108.621 8.5115 106.286 8.5115C105.26 8.5115 104.497 8.69701 103.995 9.06803C103.493 9.41723 103.242 9.86463 103.242 10.4102C103.242 10.7376 103.318 10.9995 103.471 11.1959C103.624 11.3705 103.744 11.5015 103.831 11.5888C103.918 11.6761 104.06 11.7743 104.256 11.8834C104.453 11.9707 104.617 12.0471 104.747 12.1126C104.878 12.1562 105.075 12.2217 105.337 12.309C105.62 12.3963 105.828 12.4509 105.959 12.4727C107.443 12.8437 108.512 13.1711 109.167 13.4548C109.822 13.7167 110.444 14.0441 111.033 14.4369C112.233 15.2663 112.834 16.6085 112.834 18.4636C112.834 20.2969 112.288 21.6936 111.197 22.6539C110.105 23.5924 108.61 24.0616 106.712 24.0616C105.359 24.0616 104.049 23.7452 102.783 23.1122C102.521 22.9376 102.314 22.8503 102.161 22.8503C101.681 22.8503 101.212 23.2541 100.754 24.0616H100.361Z" fill="#F5E9D6"/>
<path d="M89.0383 24.0616C86.2229 24.0616 84.106 23.3414 82.6873 21.9009C81.2906 20.4387 80.5922 18.4199 80.5922 15.8446C80.5922 13.2474 81.3779 11.2614 82.9492 9.88641C84.5424 8.51145 86.5612 7.82397 89.0056 7.82397C93.9598 7.82397 96.3387 10.312 96.1423 15.288H86.9104V16.5648C86.9104 18.7036 87.1832 20.3186 87.7289 21.4099C88.2745 22.5011 89.2238 23.0467 90.577 23.0467C93.1086 23.0467 94.7673 21.6936 95.553 18.9873L96.1423 19.0855C95.7276 20.6569 94.9747 21.8791 93.8834 22.7521C92.814 23.6251 91.199 24.0616 89.0383 24.0616ZM86.9432 14.6333H90.3151V13.0292C90.3151 11.2614 90.206 10.061 89.9877 9.42809C89.7913 8.77335 89.3766 8.44598 88.7437 8.44598C88.1326 8.44598 87.6743 8.79518 87.3687 9.49357C87.085 10.1701 86.9432 11.3487 86.9432 13.0292V14.6333Z" fill="#F5E9D6"/>
<path d="M76.344 8.15137V8.74063L68.5853 23.145H69.0109C70.8442 23.145 72.2846 22.6648 73.3322 21.7045C74.3798 20.7442 75.1982 19.1838 75.7875 17.0231H76.2458L75.722 23.7342H61.9724V23.2432L69.8621 8.74063H69.5019C67.2976 8.74063 65.759 9.10074 64.886 9.82096C64.0348 10.5412 63.271 12.0798 62.5944 14.4369H62.1688L62.5944 8.15137H76.344Z" fill="#F5E9D6"/>
<path d="M47.9811 8.15137H56.0017V23.145H57.8349V23.7342H48.112V23.145H49.9126V8.74063H47.9811V8.15137Z" fill="#F5E9D6"/>
<path d="M35.383 16.041H36.3324V13.5202C36.3324 11.4469 36.2123 10.061 35.9723 9.36262C35.754 8.6424 35.3175 8.28229 34.6628 8.28229C34.2699 8.28229 33.9098 8.39142 33.5824 8.60967C33.2769 8.80609 33.1241 9.08981 33.1241 9.46083C33.1241 9.81003 33.1896 10.1701 33.3205 10.5412H34.139C34.3136 10.9995 34.4009 11.556 34.4009 12.2107C34.4009 12.8437 34.1281 13.4002 33.5824 13.8803C33.0368 14.3387 32.3493 14.5678 31.52 14.5678C29.6431 14.5678 28.7046 13.6621 28.7046 11.8506C28.7046 9.1662 30.9853 7.82397 35.5467 7.82397C38.1438 7.82397 39.9334 8.27138 40.9156 9.1662C41.9195 10.0392 42.4215 11.6542 42.4215 14.0113V20.6569C42.4215 21.7918 42.7379 22.3592 43.3708 22.3592C44.1129 22.3592 44.5494 21.2353 44.6803 18.9873L45.1714 19.0201C45.0841 20.9406 44.724 22.261 44.0911 22.9813C43.4581 23.7015 42.4215 24.0616 40.981 24.0616C38.3621 24.0616 36.8562 23.2541 36.4633 21.639C36.1796 22.4684 35.754 23.0795 35.1866 23.4723C34.6191 23.8652 33.7898 24.0616 32.6985 24.0616C29.4685 24.0616 27.8535 22.7412 27.8535 20.1004C27.8535 18.5508 28.4645 17.4923 29.6867 16.9249C30.9307 16.3356 32.8295 16.041 35.383 16.041ZM34.0735 20.0676C34.0735 21.2025 34.1281 21.9337 34.2372 22.261C34.3681 22.5884 34.5973 22.7521 34.9247 22.7521C35.2739 22.7521 35.5903 22.4793 35.874 21.9337C36.1796 21.3662 36.3324 20.5914 36.3324 19.6093V16.5648H36.1032C34.7501 16.5648 34.0735 17.5578 34.0735 19.5439V20.0676Z" fill="#F5E9D6"/>
<path d="M11.8836 12.1454H10.1485V23.1123H12.2764V23.7343H1.63684V23.1123H3.76475V1.44036H1.63684V0.818359H11.5234C14.3607 0.818359 16.3685 0.971133 17.5471 1.27668C18.7474 1.5604 19.5877 1.9096 20.0678 2.32427C21.1154 3.17543 21.6392 4.52856 21.6392 6.38367C21.6392 8.23877 21.1809 9.57008 20.2642 10.3776C19.3476 11.1633 17.9508 11.6325 16.0739 11.7853V11.8835C17.8417 12.1236 19.0748 12.6474 19.7732 13.4549C20.4716 14.2624 20.8208 15.6155 20.8208 17.5143V19.2493C20.8208 20.3842 20.8753 21.1481 20.9845 21.5409C21.1154 21.9338 21.3773 22.1302 21.7702 22.1302C22.163 22.1302 22.4685 21.9556 22.6868 21.6064C22.9269 21.2354 23.1451 20.4715 23.3415 19.3148L23.8981 19.3803C23.658 21.2354 23.2324 22.4794 22.6213 23.1123C22.032 23.7452 20.8426 24.0617 19.053 24.0617C17.2633 24.0617 15.9866 23.647 15.2227 22.8177C14.4807 21.9665 14.1097 20.3842 14.1097 18.0708V15.681C14.1097 14.4588 13.946 13.564 13.6186 12.9966C13.3131 12.4291 12.7347 12.1454 11.8836 12.1454ZM10.1485 1.44036V11.5234H11.1961C12.4401 11.5234 13.3567 11.1415 13.946 10.3776C14.5571 9.61373 14.8626 8.36972 14.8626 6.64557V5.69619C14.8626 3.97203 14.568 2.83715 13.9787 2.29153C13.4113 1.72409 12.4946 1.44036 11.2288 1.44036H10.1485Z" fill="#F5E9D6"/>
<path d="M50.9407 2.27026C50.95 2.57899 50.9547 2.83259 50.9547 2.94951L50.9406 2.99039C50.9123 3.00865 50.8984 3.01314 50.8724 3.01539C50.8463 3.01764 50.8093 3.01764 50.7836 3.00837C50.744 2.98112 50.7286 2.94781 50.7137 2.91973C50.6785 2.85384 50.6151 2.75686 50.4163 2.41498C50.3652 2.32702 50.351 2.28857 50.2943 2.17085C50.1586 1.88931 50.0592 1.67539 50.0166 1.63421C49.9581 1.57752 49.8755 1.54709 49.747 1.49324C49.5041 1.39137 49.3598 1.3378 49.2589 1.31874C49.1861 1.30498 48.9044 1.28061 48.7066 1.29837C48.5266 1.31452 48.4079 1.35022 48.2858 1.38027C48.1666 1.40963 48.0732 1.44599 47.9913 1.48015C47.9105 1.51387 47.8606 1.54772 47.7948 1.59226L47.7923 1.59394C47.6617 1.68245 47.61 1.74926 47.5424 1.8301C47.4602 1.92828 47.3765 2.09602 47.2828 2.26631C47.2315 2.35945 47.164 2.45254 47.213 2.90978C47.227 3.04067 47.2489 3.08951 47.2621 3.12693C47.2974 3.2275 47.3442 3.3488 47.3814 3.41773C47.433 3.51312 47.4599 3.60509 47.5125 3.67665C47.5826 3.77204 47.6418 3.83826 47.6807 3.92637C47.7089 3.99008 47.7657 4.04114 47.8118 4.13098C47.8725 4.24899 47.9053 4.31517 47.9637 4.40107C48.0465 4.52263 48.1752 4.71439 48.2635 4.78277C48.4012 4.88947 48.4698 4.94878 48.586 5.03923C48.6681 5.10314 48.7682 5.16322 48.8221 5.20037C48.8783 5.23914 48.9457 5.26863 49.028 5.33678C49.1075 5.40267 49.1943 5.46519 49.3227 5.55713C49.4115 5.6207 49.5039 5.70607 49.5938 5.76597C49.6691 5.81612 49.7555 5.90597 49.8558 5.91573C49.9497 5.92486 50.1361 5.93401 50.2369 5.97937C50.2673 5.993 50.5342 6.01001 50.9212 5.99736C51.063 5.99273 51.1 5.98095 51.2164 5.97924C51.5225 5.97474 51.7498 5.95507 51.8729 5.95198C52.2366 5.94285 52.3204 5.9258 52.5668 5.92248C52.7333 5.92023 53.0298 5.92373 53.1922 5.91791C53.3824 5.9111 53.506 5.91537 53.6612 5.90429C53.7566 5.89747 53.8656 5.89847 53.9861 5.89066C54.1603 5.87935 54.3686 5.88894 54.4441 5.8634C54.505 5.84283 54.6438 5.85402 55.0388 5.74056C55.141 5.71119 55.3167 5.69199 55.5512 5.62466C55.6932 5.58391 55.8458 5.58582 56.007 5.53853C56.2415 5.46972 56.4542 5.39452 56.5257 5.34755C56.6709 5.25223 56.8129 5.22648 56.9444 5.13408C57.0871 5.03392 57.221 4.92947 57.3206 4.85711C57.3958 4.80253 57.486 4.75483 57.5735 4.6683C57.7042 4.53898 57.8113 4.48388 57.882 4.37082C57.9615 4.24354 58.0697 4.11521 58.1297 4.0099C58.1672 3.94402 58.1805 3.87931 58.2162 3.83275C58.2702 3.76223 58.2949 3.65858 58.3425 3.59203C58.3635 3.56259 58.3944 3.31232 58.375 2.95489C58.3634 2.73992 58.3322 2.64776 58.3142 2.56304C58.2929 2.46301 58.2827 2.31835 58.1688 2.14012C58.0964 2.02681 58.0465 1.8746 57.956 1.75869C57.8535 1.6274 57.7835 1.57493 57.6355 1.51388C57.5585 1.48213 57.364 1.41318 57.1277 1.33666C57.0302 1.30511 56.8533 1.2831 56.6084 1.30293C56.4688 1.31424 56.372 1.32462 56.2934 1.35983C56.2056 1.39912 56.1399 1.41888 56.0656 1.44123L56.0656 1.44123L56.0569 1.44384C55.8987 1.49147 55.736 1.58859 55.6441 1.64341L55.643 1.64409C55.5514 1.69878 55.4865 1.84398 55.4494 1.93912L55.4479 1.94286C55.4137 2.03049 55.3196 2.27178 55.1636 2.37982C55.0093 2.48673 54.7823 2.68453 54.6143 2.74067C54.5325 2.76799 54.4771 2.79042 54.3851 2.79967C54.2504 2.81323 54.0461 2.77671 54.0136 2.75872C54.0515 2.7083 54.1588 2.61769 54.2467 2.47903C54.3346 2.34037 54.4828 2.09304 54.564 1.96242C54.6592 1.81832 54.7306 1.73605 54.816 1.59558C54.8602 1.52274 54.8938 1.43976 54.9305 1.35479C54.9677 1.26846 54.9946 1.1971 54.9935 1.08613C54.991 0.837023 55.0113 0.679587 54.9513 0.546288C54.9206 0.478084 54.8358 0.375196 54.7429 0.321575C54.668 0.278309 54.6025 0.200999 54.354 0.151167C54.2187 0.124049 54.0369 0.0730653 53.8323 0.0307714C53.6903 0.00140479 53.4796 -0.0208357 53.1381 0.031589C52.9424 0.0616369 52.7062 0.115601 52.5762 0.147216C52.4462 0.178831 52.4231 0.187961 52.3519 0.208538C52.03 0.301475 51.8999 0.297522 51.7373 0.4062C51.5813 0.510516 51.5215 0.555253 51.4594 0.646992C51.361 0.792599 51.2566 0.896359 51.2069 0.987672C51.1177 1.15181 51.0213 1.29972 50.9825 1.39867C50.9406 1.50557 50.8911 1.59674 50.9149 1.95793C50.922 2.06401 50.9362 2.12321 50.9407 2.27026Z" fill="#F5E9D6"/>
<path d="M106.641 31.9719C107.9 31.9719 109.038 32.2661 110.044 32.8635C111.06 33.4427 111.861 34.2419 112.442 35.2551L112.55 35.4475C113.03 36.331 113.292 37.3105 113.347 38.3792L113.361 38.3831V38.6975L113.363 38.9016L113.361 38.9026V44.0256C113.361 44.3803 113.241 44.6999 112.99 44.9504L112.984 44.9573L112.976 44.9641C112.723 45.1934 112.408 45.2971 112.065 45.2971C111.721 45.2971 111.406 45.1935 111.154 44.9641L111.14 44.9504C110.889 44.6999 110.77 44.3803 110.77 44.0256V43.7395C110.426 44.0665 110.043 44.3575 109.617 44.6067L109.615 44.6077C108.684 45.1459 107.628 45.4104 106.459 45.4104C105.228 45.4103 104.111 45.1223 103.119 44.5383L103.115 44.5354C102.132 43.94 101.349 43.1339 100.771 42.1233L100.768 42.1184C100.201 41.1003 99.9221 39.9583 99.9221 38.7024C99.9221 37.4302 100.209 36.2787 100.793 35.259L100.795 35.2551C101.391 34.2424 102.199 33.4429 103.215 32.8635C104.235 32.2665 105.381 31.972 106.641 31.9719ZM106.641 34.3782C105.849 34.3782 105.145 34.571 104.517 34.9524L104.511 34.9563C103.878 35.3273 103.377 35.834 103.003 36.4827C102.634 37.1237 102.445 37.8603 102.445 38.7024C102.445 39.5264 102.632 40.2631 103.002 40.9211C103.376 41.5701 103.878 42.0774 104.511 42.4485C105.14 42.8168 105.846 43.0031 106.641 43.0032C107.452 43.0032 108.157 42.8161 108.768 42.4504L108.771 42.4485C109.403 42.0782 109.895 41.5728 110.253 40.927L110.255 40.925C110.626 40.266 110.815 39.5279 110.815 38.7024C110.815 37.8603 110.626 37.1237 110.257 36.4827L110.253 36.4778C109.895 35.8319 109.403 35.3266 108.771 34.9563L108.762 34.9504C108.152 34.5718 107.449 34.3782 106.641 34.3782Z" fill="#F5E9D6" stroke="#F5E9D6" stroke-width="0.820796"/>
<path d="M96.9152 31.9719C97.6232 31.972 98.2247 32.073 98.6788 32.3167C98.9163 32.4441 99.1178 32.6217 99.2355 32.8645C99.3547 33.1106 99.3656 33.3777 99.3048 33.6389L99.3019 33.6487C99.2277 33.9356 99.0768 34.2058 98.798 34.3567L98.799 34.3577C98.7964 34.3591 98.7937 34.3601 98.7911 34.3616C98.7884 34.363 98.7861 34.365 98.7833 34.3665L98.7823 34.3655C98.5615 34.4869 98.3104 34.5209 98.0568 34.5022H98.0538C97.8655 34.4872 97.6471 34.4724 97.3986 34.4573L97.3859 34.4563C96.613 34.3851 95.9425 34.472 95.3644 34.7024L95.3595 34.7043C94.7969 34.9204 94.3533 35.2517 94.0197 35.6995L94.0206 35.7004C93.7078 36.1395 93.5441 36.67 93.5441 37.3108V44.1331C93.544 44.4809 93.4485 44.8078 93.2072 45.0569C92.9639 45.3079 92.6397 45.4104 92.2931 45.4104C91.9466 45.4103 91.6231 45.3078 91.38 45.0569C91.1386 44.8078 91.0432 44.4809 91.0431 44.1331V33.386C91.0431 33.038 91.1385 32.7103 91.38 32.4612C91.6231 32.2106 91.9468 32.1087 92.2931 32.1086C92.6396 32.1086 92.964 32.2104 93.2072 32.4612C93.4263 32.6873 93.5238 32.9783 93.5402 33.2903C93.791 33.0584 94.0624 32.8514 94.3556 32.6711L94.3595 32.6692C95.1332 32.2035 95.9885 31.9719 96.9152 31.9719Z" fill="#F5E9D6" stroke="#F5E9D6" stroke-width="0.820796"/>
<path d="M86.3366 31.9719C87.0648 31.9719 87.6809 32.0731 88.1452 32.3147C88.3872 32.4406 88.5947 32.6169 88.7165 32.8606C88.8403 33.1086 88.851 33.3785 88.7878 33.6418L88.7858 33.6516C88.7084 33.9422 88.5516 34.2111 88.2682 34.3596L88.2692 34.3606C88.2675 34.3616 88.2651 34.3616 88.2634 34.3625C88.2599 34.3643 88.2571 34.3676 88.2536 34.3694L88.2526 34.3684C88.0289 34.4877 87.7744 34.5216 87.5163 34.5032L87.5143 34.5022C87.3199 34.4872 87.0941 34.4724 86.8376 34.4573L86.8249 34.4563C86.0244 34.3848 85.3291 34.4724 84.7292 34.7043L84.7243 34.7063C84.1405 34.9237 83.6819 35.2563 83.3376 35.7043L83.3386 35.7053C83.0162 36.1441 82.8483 36.6728 82.8483 37.3108V44.1331C82.8483 44.4843 82.7481 44.8132 82.4997 45.0618C82.2512 45.3103 81.9223 45.4104 81.571 45.4104C81.2197 45.4103 80.8907 45.3104 80.6423 45.0618C80.3939 44.8132 80.2947 44.4843 80.2946 44.1331V33.386C80.2946 33.0347 80.394 32.7059 80.6423 32.4573C80.8907 32.2087 81.2197 32.1087 81.571 32.1086C81.9223 32.1086 82.2512 32.2086 82.4997 32.4573C82.7299 32.6876 82.8316 32.9867 82.8454 33.3088C83.1106 33.068 83.3984 32.8538 83.7097 32.6682L83.7126 32.6663C84.5078 32.2021 85.3856 31.972 86.3366 31.9719Z" fill="#F5E9D6" stroke="#F5E9D6" stroke-width="0.820796"/>
<path d="M72.1847 31.9719C73.3997 31.9719 74.4766 32.25 75.3995 32.8215C76.3335 33.3757 77.0558 34.1518 77.5607 35.1399C78.0647 36.1265 78.3116 37.242 78.3116 38.4758C78.3116 38.8113 78.2023 39.1176 77.963 39.3557L77.9552 39.3635L77.9474 39.3704C77.7064 39.5861 77.4046 39.6789 77.0812 39.679H68.3566C68.4437 40.1416 68.5946 40.5645 68.8087 40.9495C69.1831 41.5955 69.6855 42.1008 70.3195 42.4709C70.9473 42.8374 71.679 43.0266 72.5265 43.0266C73.0241 43.0266 73.5241 42.9439 74.0284 42.7776C74.5577 42.5926 74.9582 42.3732 75.2423 42.1292L75.2501 42.1213H75.2511C75.4826 41.9331 75.7533 41.8326 76.0499 41.8264C76.3541 41.8048 76.6405 41.8822 76.881 42.0735L76.8927 42.0823L76.9034 42.092C77.1542 42.3223 77.3211 42.6118 77.3302 42.9543H77.3312C77.3314 42.9576 77.331 42.9609 77.3312 42.9641C77.3313 42.9706 77.3322 42.9771 77.3322 42.9836H77.3312C77.3469 43.3302 77.1962 43.6222 76.9347 43.8401L76.9357 43.8411C76.3904 44.3013 75.7082 44.6775 74.9005 44.9768L74.8937 44.9797V44.9788C74.0823 45.2636 73.2926 45.4104 72.5265 45.4104C71.2361 45.4104 70.0725 45.1319 69.048 44.5657L69.0411 44.5627C68.0366 43.9826 67.2415 43.1817 66.6593 42.1682L66.6564 42.1643C66.0869 41.1446 65.8078 39.9868 65.8077 38.7024C65.8077 37.4077 66.0697 36.2514 66.6075 35.2463L66.6085 35.2444C67.1581 34.2314 67.9143 33.4296 68.8741 32.8469C69.8413 32.2599 70.9495 31.9719 72.1847 31.9719ZM72.1847 34.3557C71.3865 34.3557 70.7048 34.5426 70.1251 34.9045C69.5407 35.2695 69.0815 35.7762 68.7491 36.4358L68.7501 36.4368C68.6024 36.737 68.4886 37.0608 68.4083 37.4084H75.7823C75.7094 37.0275 75.5942 36.6727 75.4357 36.343C75.1334 35.7145 74.7064 35.2306 74.1525 34.8811L74.1486 34.8792C73.6186 34.5365 72.97 34.3557 72.1847 34.3557Z" fill="#F5E9D6" stroke="#F5E9D6" stroke-width="0.820796"/>
<path d="M59.1887 27.9998C59.5505 27.9998 59.8781 28.1172 60.136 28.3689C60.3946 28.6214 60.5188 28.9458 60.5188 29.3074V32.4636H62.7717C63.0985 32.4637 63.394 32.5719 63.6311 32.7957H63.6321C63.6348 32.7981 63.6372 32.801 63.6399 32.8035C63.6423 32.8058 63.6453 32.808 63.6477 32.8103H63.6467C63.8912 33.0331 64.0071 33.3281 64.0071 33.656C64.0071 33.9839 63.8817 34.2731 63.6477 34.5017L63.6399 34.5095L63.6321 34.5164C63.3905 34.7286 63.0935 34.8259 62.7717 34.8259H60.5188V40.5593C60.5189 41.2513 60.7245 41.7899 61.1145 42.2097C61.5011 42.6109 61.9943 42.8181 62.6301 42.8181H63.2668C63.6205 42.8182 63.9378 42.9419 64.1799 43.2019C64.4169 43.4566 64.5256 43.776 64.5256 44.1257C64.5256 44.4991 64.3842 44.8267 64.1057 45.0759L64.0989 45.0818L64.0911 45.0876C63.8177 45.31 63.4861 45.4099 63.1252 45.4099H62.6301C61.7317 45.4099 60.913 45.2022 60.1848 44.7791L60.1809 44.7771C59.4752 44.3569 58.9148 43.7833 58.5032 43.0632L58.5012 43.0603C58.0863 42.3177 57.8831 41.4803 57.8831 40.5593V34.8259H56.762C56.4401 34.8259 56.1432 34.7286 55.9016 34.5164L55.8938 34.5095L55.886 34.5017C55.6518 34.273 55.5266 33.9841 55.5266 33.656C55.5266 33.328 55.6423 33.0331 55.887 32.8103H55.886C55.8883 32.808 55.8905 32.8057 55.8928 32.8035C55.8957 32.8009 55.8987 32.7982 55.9016 32.7957H55.9026C56.1397 32.572 56.4352 32.4636 56.762 32.4636H57.8831V29.3074C57.8831 28.9576 57.9916 28.6383 58.2288 28.3835L58.2356 28.3757L58.2424 28.3689C58.5002 28.1173 58.8271 27.9999 59.1887 27.9998Z" fill="#F5E9D6" stroke="#F5E9D6" stroke-width="0.820796"/>
<path d="M41.0994 31.9719C42.3792 31.9719 43.5357 32.2661 44.5584 32.8625H44.5594C45.5917 33.4408 46.4061 34.2391 46.9979 35.2522H46.9988C47.5579 36.1852 47.8614 37.2298 47.9217 38.3772L47.9354 38.3811V38.6965L47.9383 38.9036L47.9354 38.9055V44.0256C47.9354 44.3826 47.8135 44.7034 47.5584 44.9534L47.5506 44.9602L47.5438 44.9661C47.2877 45.1942 46.9699 45.2971 46.6238 45.2971C46.2777 45.2971 45.9591 45.1943 45.7029 44.9661L45.6961 44.9602L45.6893 44.9534C45.4342 44.7033 45.3113 44.3827 45.3113 44.0256V43.7278C44.9577 44.0604 44.5631 44.3553 44.1238 44.6077L44.1219 44.6096C43.1751 45.1468 42.1022 45.4103 40.9149 45.4104C39.6631 45.4104 38.5275 45.1224 37.5193 44.5393L37.5154 44.5374C36.5151 43.9427 35.7173 43.1364 35.1277 42.1252L35.1258 42.1213C34.5484 41.1027 34.2635 39.9597 34.2635 38.7024C34.2635 37.4289 34.5564 36.2763 35.1512 35.2561L35.1541 35.2522C35.7603 34.2406 36.5811 33.4428 37.6121 32.8645C38.6505 32.2668 39.8167 31.9719 41.0994 31.9719ZM41.0994 34.3782C40.2902 34.3782 39.5697 34.5719 38.9285 34.9543L38.9236 34.9583C38.2772 35.3301 37.7657 35.8371 37.3856 36.4856C37.0101 37.1262 36.8172 37.8616 36.8172 38.7024C36.8172 39.5251 37.0089 40.2605 37.3856 40.9182L37.534 41.1555C37.8954 41.6922 38.3579 42.1211 38.9236 42.4465C39.5656 42.8157 40.2875 43.0032 41.0994 43.0032C41.9283 43.0032 42.6488 42.8151 43.2723 42.4485L43.2752 42.4465C43.9204 42.0754 44.4226 41.5695 44.7869 40.9241L44.7879 40.9221C45.1659 40.2636 45.3582 39.5266 45.3582 38.7024C45.3582 37.8616 45.1654 37.1262 44.7899 36.4856L44.7869 36.4797C44.4226 35.8344 43.9203 35.3294 43.2752 34.9583L43.2664 34.9524C42.6437 34.5727 41.9255 34.3782 41.0994 34.3782Z" fill="#F5E9D6" stroke="#F5E9D6" stroke-width="0.820796"/>
<path d="M30.2834 26.5979C30.6329 26.5979 30.947 26.7148 31.1956 26.9583C31.4647 27.205 31.5793 27.5379 31.5793 27.9006V38.7151C31.5475 39.9694 31.2349 41.1137 30.6379 42.1389C30.057 43.1474 29.2561 43.9466 28.2415 44.5315L28.2405 44.5305C27.235 45.1186 26.1049 45.4104 24.8596 45.4104C23.5991 45.4104 22.4535 45.1197 21.4329 44.5315L21.428 44.5286C20.4145 43.9281 19.6077 43.1145 19.0129 42.093L19.011 42.0891C18.4278 41.0597 18.1409 39.8976 18.1409 38.6135C18.1409 37.3458 18.4196 36.1931 18.9856 35.1653L18.9885 35.1604C19.4949 34.2666 20.1584 33.5366 20.9768 32.9749L21.3362 32.7444C22.3274 32.1389 23.4452 31.8392 24.678 31.8391C25.7511 31.8391 26.7327 32.0743 27.6135 32.55C28.1293 32.8198 28.5881 33.1465 28.9885 33.5276V27.9006C28.9886 27.5446 29.0982 27.2173 29.3567 26.9719V26.9709C29.6073 26.7182 29.9275 26.5979 30.2834 26.5979ZM24.8596 34.2629C24.0659 34.263 23.36 34.4515 22.7317 34.8235C22.1006 35.1971 21.5984 35.7154 21.2239 36.387L21.2219 36.3899C20.8518 37.0397 20.6633 37.7777 20.6633 38.6135C20.6633 39.4658 20.8525 40.2109 21.2219 40.8596C21.5955 41.5155 22.098 42.0357 22.7317 42.426L22.9709 42.5569C23.5379 42.8422 24.1651 42.9875 24.8596 42.9875C25.6701 42.9875 26.3744 42.7973 26.9846 42.428C27.6185 42.0383 28.1123 41.5194 28.4709 40.8655L28.4749 40.8596C28.8443 40.2109 29.0334 39.4658 29.0334 38.6135C29.0334 37.7777 28.8449 37.0397 28.4749 36.3899L28.47 36.3811C28.111 35.7127 27.6181 35.1963 26.9885 34.8235L26.9846 34.8215C26.3744 34.4522 25.6701 34.2629 24.8596 34.2629Z" fill="#F5E9D6" stroke="#F5E9D6" stroke-width="0.820796"/>
<path d="M5.91292 23.5656C5.91292 23.5656 7.41744 22.7621 9.00066 23.547C9.00066 23.547 9.72246 33.4302 9.86323 35.7225C10.0917 39.444 10.0337 42.9596 7.22773 42.9765C4.42194 42.9934 4.36026 39.2862 5.03364 34.6041C5.70678 29.9219 5.91292 23.5656 5.91292 23.5656Z" fill="#F5E9D6"/>
<path d="M6.38848 30.423C6.38848 30.423 6.3868 30.4214 6.38355 30.4186C6.38445 30.4202 6.39387 30.4293 6.39208 30.4282C6.38525 30.4236 6.37506 30.4166 6.36173 30.4072C6.32768 30.3838 6.26643 30.3427 6.18185 30.3001C6.09728 30.2581 5.99071 30.2138 5.8703 30.1848C5.74935 30.1585 5.61707 30.1403 5.47351 30.1558C5.33005 30.1696 5.17344 30.2056 4.99861 30.2879C4.82453 30.3681 4.63331 30.4892 4.43778 30.654C4.24146 30.8189 4.04527 31.0234 3.84995 31.2604C3.83234 31.281 3.82726 31.2896 3.81896 31.3011L3.79474 31.3345L3.73933 31.4125C3.70018 31.4679 3.66282 31.5253 3.62693 31.584C3.5548 31.7012 3.48839 31.8238 3.42781 31.951C3.18639 32.4607 3.04336 33.0477 2.98138 33.6275C2.91794 34.2073 2.93073 34.7758 2.97302 35.2619C3.05931 36.2381 3.25489 36.8778 3.23742 36.8109C3.44049 37.6393 2.9367 38.4763 2.11234 38.6803C1.28787 38.8843 0.454886 38.378 0.251817 37.5496C0.238714 37.485 0.0595365 36.6602 0.0453011 35.3872C0.0405862 34.7515 0.0794658 34.0023 0.232759 33.1933C0.385176 32.3871 0.66077 31.5134 1.12947 30.7023C1.2466 30.5003 1.37535 30.303 1.51486 30.1136C1.58433 30.0187 1.65649 29.9258 1.73191 29.8356C1.77022 29.79 1.80454 29.7475 1.84986 29.697L1.91456 29.6244C1.93583 29.6006 1.95998 29.5735 1.97351 29.5602C2.27101 29.2511 2.59723 28.9504 2.95861 28.6913C3.31943 28.4316 3.71862 28.2098 4.1422 28.0572C4.56354 27.9019 5.01203 27.827 5.42717 27.829C5.84364 27.8273 6.22167 27.9087 6.53515 28.0116C6.8492 28.1176 7.10084 28.2495 7.29876 28.3706C7.49636 28.4929 7.64093 28.6069 7.74294 28.6933C7.7935 28.7361 7.83455 28.774 7.8645 28.8022C7.89984 28.8368 7.91813 28.8545 7.91813 28.8545C8.35053 29.2768 8.36039 29.9712 7.94018 30.4058C7.53337 30.8263 6.87266 30.849 6.4386 30.4671L6.38848 30.423Z" fill="#F5E9D6"/>
<path d="M8.80652 31.7691C8.80652 31.7691 8.81519 31.7696 8.83187 31.7706C8.85199 31.7723 8.88179 31.7749 8.92059 31.778C8.98863 31.784 9.07936 31.7937 9.19336 31.8091C9.41957 31.8414 9.7337 31.895 10.105 32.002C10.2911 32.0532 10.4907 32.1224 10.7011 32.2025C10.9104 32.2877 11.1311 32.3831 11.354 32.5051C11.5773 32.625 11.8047 32.765 12.0262 32.93C12.2504 33.0902 12.4636 33.2834 12.6691 33.4869C12.8688 33.6972 13.0604 33.9215 13.2229 34.1634C13.2636 34.2239 13.3041 34.2842 13.3444 34.3443C13.3809 34.4066 13.4172 34.4687 13.4532 34.5304C13.5273 34.6536 13.5894 34.7798 13.6484 34.9055C13.7114 35.0302 13.7599 35.1561 13.808 35.28C13.8592 35.4037 13.898 35.5258 13.9342 35.6455C13.9724 35.7653 14.0068 35.8822 14.031 35.995C14.0565 36.1078 14.0853 36.2183 14.1036 36.3229C14.137 36.5312 14.1736 36.7261 14.1852 36.8931C14.2004 37.0611 14.2173 37.2105 14.218 37.3281C14.2249 37.5669 14.2287 37.7033 14.2287 37.7033C14.2535 38.57 13.5859 39.293 12.7376 39.3179C11.8893 39.3429 11.1816 38.6607 11.1569 37.794C11.1549 37.7256 11.1573 37.6582 11.1636 37.5919L11.1694 37.5377C11.1694 37.5377 11.1778 37.4564 11.1926 37.314C11.2038 37.2411 11.2025 37.1592 11.208 37.062C11.217 36.9629 11.2074 36.8614 11.208 36.7446C11.2066 36.6871 11.1979 36.6314 11.1939 36.5707C11.1911 36.5091 11.1814 36.4498 11.1707 36.3889C11.1618 36.3271 11.1525 36.2633 11.1355 36.2028C11.1211 36.1408 11.1085 36.0756 11.0864 36.0152C11.0677 35.9525 11.0487 35.8884 11.0218 35.828L10.9855 35.7339L10.9409 35.643C10.8838 35.5189 10.8078 35.4022 10.7275 35.2842C10.6399 35.1718 10.5502 35.0562 10.4413 34.9545C10.3367 34.8494 10.2206 34.7528 10.1002 34.6644C9.98106 34.5744 9.85314 34.4978 9.73014 34.4255C9.60427 34.3572 9.48221 34.2935 9.36412 34.2433C9.12991 34.1385 8.92217 34.0735 8.78247 34.033C8.71312 34.0135 8.65892 33.9998 8.62788 33.9924C8.62064 33.9905 8.61419 33.9889 8.60862 33.9875C8.60662 33.9866 8.60495 33.9858 8.6035 33.9853C8.60216 33.984 8.58726 33.9822 8.58992 33.9824C7.99172 33.9211 7.55518 33.3761 7.61496 32.7648C7.67496 32.1537 8.20832 31.7078 8.80652 31.7691Z" fill="#F5E9D6"/>
</svg>
