<svg width="114" height="46" viewBox="0 0 114 46" fill="none" xmlns="http://www.w3.org/2000/svg">
<path d="M100.36 24.0616V18.2017H100.753C101.321 20.1004 102.085 21.4317 103.045 22.1956C104.005 22.9595 105.205 23.3414 106.646 23.3414C108.872 23.3414 109.985 22.6321 109.985 21.2135C109.985 20.6024 109.712 20.1441 109.167 19.8385C108.315 19.3584 107.224 18.9874 105.893 18.7255C104.409 18.3326 103.165 17.8088 102.161 17.1541C100.961 16.3684 100.36 15.1244 100.36 13.4221C100.36 11.7197 100.884 10.3666 101.932 9.36266C102.979 8.3369 104.376 7.82402 106.122 7.82402C107.191 7.82402 108.294 8.075 109.429 8.57697C109.843 8.75157 110.16 8.83887 110.378 8.83887C110.596 8.83887 110.782 8.76248 110.934 8.60971C111.087 8.45694 111.273 8.17322 111.491 7.75854H111.851V12.7673H111.458C110.345 9.9301 108.621 8.5115 106.286 8.5115C105.26 8.5115 104.496 8.69701 103.994 9.06803C103.492 9.41723 103.241 9.86463 103.241 10.4102C103.241 10.7376 103.318 10.9995 103.47 11.1959C103.623 11.3705 103.743 11.5015 103.83 11.5888C103.918 11.6761 104.06 11.7743 104.256 11.8834C104.452 11.9707 104.616 12.0471 104.747 12.1126C104.878 12.1562 105.074 12.2217 105.336 12.309C105.62 12.3963 105.827 12.4509 105.958 12.4727C107.442 12.8437 108.512 13.1711 109.167 13.4548C109.821 13.7167 110.443 14.0441 111.033 14.4369C112.233 15.2663 112.833 16.6085 112.833 18.4636C112.833 20.2969 112.288 21.6936 111.196 22.6539C110.105 23.5924 108.61 24.0616 106.711 24.0616C105.358 24.0616 104.049 23.7452 102.783 23.1122C102.521 22.9376 102.314 22.8503 102.161 22.8503C101.681 22.8503 101.212 23.2541 100.753 24.0616H100.36Z" fill="#2C1A0E"/>
<path d="M89.038 24.0616C86.2226 24.0616 84.1056 23.3414 82.687 21.9009C81.2902 20.4387 80.5918 18.4199 80.5918 15.8446C80.5918 13.2474 81.3775 11.2614 82.9489 9.88641C84.5421 8.51145 86.5609 7.82397 89.0052 7.82397C93.9595 7.82397 96.3383 10.312 96.1419 15.288H86.9101V16.5648C86.9101 18.7036 87.1829 20.3186 87.7285 21.4099C88.2741 22.5011 89.2235 23.0467 90.5766 23.0467C93.1083 23.0467 94.767 21.6936 95.5527 18.9873L96.1419 19.0855C95.7272 20.6569 94.9743 21.8791 93.8831 22.7521C92.8136 23.6251 91.1986 24.0616 89.038 24.0616ZM86.9428 14.6333H90.3147V13.0292C90.3147 11.2614 90.2056 10.061 89.9873 9.42809C89.7909 8.77335 89.3763 8.44598 88.7433 8.44598C88.1322 8.44598 87.6739 8.79518 87.3684 9.49357C87.0847 10.1701 86.9428 11.3487 86.9428 13.0292V14.6333Z" fill="#2C1A0E"/>
<path d="M76.3442 8.15137V8.74063L68.5855 23.145H69.0111C70.8444 23.145 72.2848 22.6648 73.3324 21.7045C74.38 20.7442 75.1984 19.1838 75.7877 17.0231H76.246L75.7222 23.7342H61.9727V23.2432L69.8623 8.74063H69.5022C67.2979 8.74063 65.7592 9.10074 64.8863 9.82096C64.0351 10.5412 63.2712 12.0798 62.5947 14.4369H62.1691L62.5947 8.15137H76.3442Z" fill="#2C1A0E"/>
<path d="M47.9805 8.15137H56.0011V23.145H57.8343V23.7342H48.1114V23.145H49.912V8.74063H47.9805V8.15137Z" fill="#2C1A0E"/>
<path d="M35.383 16.041H36.3324V13.5202C36.3324 11.4469 36.2124 10.061 35.9723 9.36262C35.7541 8.6424 35.3176 8.28229 34.6628 8.28229C34.27 8.28229 33.9099 8.39142 33.5825 8.60967C33.277 8.80609 33.1242 9.08981 33.1242 9.46083C33.1242 9.81003 33.1897 10.1701 33.3206 10.5412H34.139C34.3136 10.9995 34.4009 11.556 34.4009 12.2107C34.4009 12.8437 34.1281 13.4002 33.5825 13.8803C33.0369 14.3387 32.3494 14.5678 31.5201 14.5678C29.6431 14.5678 28.7047 13.6621 28.7047 11.8506C28.7047 9.1662 30.9854 7.82397 35.5467 7.82397C38.1439 7.82397 39.9335 8.27138 40.9156 9.1662C41.9196 10.0392 42.4215 11.6542 42.4215 14.0113V20.6569C42.4215 21.7918 42.738 22.3592 43.3709 22.3592C44.1129 22.3592 44.5494 21.2353 44.6804 18.9873L45.1714 19.0201C45.0841 20.9406 44.724 22.261 44.0911 22.9813C43.4582 23.7015 42.4215 24.0616 40.9811 24.0616C38.3621 24.0616 36.8562 23.2541 36.4634 21.639C36.1796 22.4684 35.7541 23.0795 35.1866 23.4723C34.6192 23.8652 33.7898 24.0616 32.6986 24.0616C29.4685 24.0616 27.8535 22.7412 27.8535 20.1004C27.8535 18.5508 28.4646 17.4923 29.6868 16.9249C30.9308 16.3356 32.8296 16.041 35.383 16.041ZM34.0736 20.0676C34.0736 21.2025 34.1281 21.9337 34.2372 22.261C34.3682 22.5884 34.5974 22.7521 34.9247 22.7521C35.2739 22.7521 35.5904 22.4793 35.8741 21.9337C36.1797 21.3662 36.3324 20.5914 36.3324 19.6093V16.5648H36.1033C34.7501 16.5648 34.0736 17.5578 34.0736 19.5439V20.0676Z" fill="#2C1A0E"/>
<path d="M11.8834 12.1454H10.1484V23.1123H12.2763V23.7343H1.63672V23.1123H3.76463V1.44036H1.63672V0.818359H11.5233C14.3605 0.818359 16.3684 0.971133 17.5469 1.27668C18.7473 1.5604 19.5876 1.9096 20.0677 2.32427C21.1153 3.17543 21.6391 4.52856 21.6391 6.38367C21.6391 8.23877 21.1808 9.57008 20.2641 10.3776C19.3475 11.1633 17.9507 11.6325 16.0738 11.7853V11.8835C17.8416 12.1236 19.0747 12.6474 19.7731 13.4549C20.4715 14.2624 20.8207 15.6155 20.8207 17.5143V19.2493C20.8207 20.3842 20.8752 21.1481 20.9843 21.5409C21.1153 21.9338 21.3772 22.1302 21.77 22.1302C22.1629 22.1302 22.4684 21.9556 22.6867 21.6064C22.9267 21.2354 23.145 20.4715 23.3414 19.3148L23.8979 19.3803C23.6579 21.2354 23.2323 22.4794 22.6212 23.1123C22.0319 23.7452 20.8425 24.0617 19.0529 24.0617C17.2632 24.0617 15.9865 23.647 15.2226 22.8177C14.4806 21.9665 14.1096 20.3842 14.1096 18.0708V15.681C14.1096 14.4588 13.9459 13.564 13.6185 12.9966C13.3129 12.4291 12.7346 12.1454 11.8834 12.1454ZM10.1484 1.44036V11.5234H11.196C12.44 11.5234 13.3566 11.1415 13.9459 10.3776C14.557 9.61373 14.8625 8.36972 14.8625 6.64557V5.69619C14.8625 3.97203 14.5679 2.83715 13.9786 2.29153C13.4112 1.72409 12.4945 1.44036 11.2287 1.44036H10.1484Z" fill="#2C1A0E"/>
<path d="M50.94 2.27026C50.9493 2.57899 50.954 2.83259 50.954 2.94951L50.94 2.99039C50.9116 3.00865 50.8977 3.01314 50.8717 3.01539C50.8457 3.01764 50.8086 3.01764 50.7829 3.00837C50.7434 2.98112 50.728 2.94781 50.713 2.91973C50.6778 2.85384 50.6145 2.75686 50.4157 2.41498C50.3645 2.32702 50.3503 2.28857 50.2936 2.17085C50.158 1.88931 50.0585 1.67539 50.016 1.63421C49.9575 1.57752 49.8748 1.54709 49.7464 1.49324C49.5034 1.39137 49.3591 1.3378 49.2583 1.31874C49.1854 1.30498 48.9037 1.28061 48.7059 1.29837C48.5259 1.31452 48.4072 1.35022 48.2852 1.38027C48.1659 1.40963 48.0725 1.44599 47.9906 1.48015C47.9098 1.51387 47.8599 1.54772 47.7941 1.59226L47.7917 1.59394C47.661 1.68245 47.6093 1.74926 47.5417 1.8301C47.4595 1.92828 47.3759 2.09602 47.2821 2.26631C47.2308 2.35945 47.1633 2.45254 47.2123 2.90978C47.2263 3.04067 47.2483 3.08951 47.2614 3.12693C47.2968 3.2275 47.3435 3.3488 47.3808 3.41773C47.4323 3.51312 47.4592 3.60509 47.5118 3.67665C47.5819 3.77204 47.6411 3.83826 47.6801 3.92637C47.7082 3.99008 47.765 4.04114 47.8112 4.13098C47.8718 4.24899 47.9046 4.31517 47.9631 4.40107C48.0458 4.52263 48.1745 4.71439 48.2628 4.78277C48.4005 4.88947 48.4691 4.94878 48.5853 5.03923C48.6674 5.10314 48.7675 5.16322 48.8214 5.20037C48.8776 5.23914 48.945 5.26863 49.0273 5.33678C49.1069 5.40267 49.1937 5.46519 49.322 5.55713C49.4108 5.6207 49.5032 5.70607 49.5931 5.76597C49.6684 5.81612 49.7548 5.90597 49.8552 5.91573C49.949 5.92486 50.1354 5.93401 50.2363 5.97937C50.2666 5.993 50.5335 6.01001 50.9205 5.99736C51.0623 5.99273 51.0993 5.98095 51.2157 5.97924C51.5219 5.97474 51.7491 5.95507 51.8722 5.95198C52.2359 5.94285 52.3197 5.9258 52.5661 5.92248C52.7326 5.92023 53.0291 5.92373 53.1915 5.91791C53.3818 5.9111 53.5053 5.91537 53.6606 5.90429C53.756 5.89747 53.865 5.89847 53.9854 5.89066C54.1597 5.87935 54.368 5.88894 54.4435 5.8634C54.5043 5.84283 54.6432 5.85402 55.0381 5.74056C55.1403 5.71119 55.316 5.69199 55.5506 5.62466C55.6925 5.58391 55.8451 5.58582 56.0063 5.53853C56.2408 5.46972 56.4535 5.39452 56.5251 5.34755C56.6702 5.25223 56.8122 5.22648 56.9438 5.13408C57.0864 5.03392 57.2203 4.92947 57.32 4.85711C57.3951 4.80253 57.4853 4.75483 57.5728 4.6683C57.7035 4.53898 57.8106 4.48388 57.8813 4.37082C57.9608 4.24354 58.069 4.11521 58.129 4.0099C58.1666 3.94402 58.1799 3.87931 58.2155 3.83275C58.2695 3.76223 58.2942 3.65858 58.3418 3.59203C58.3629 3.56259 58.3937 3.31232 58.3744 2.95489C58.3627 2.73992 58.3315 2.64776 58.3135 2.56304C58.2923 2.46301 58.282 2.31835 58.1681 2.14012C58.0957 2.02681 58.0458 1.8746 57.9553 1.75869C57.8528 1.6274 57.7828 1.57493 57.6348 1.51388C57.5579 1.48213 57.3634 1.41318 57.127 1.33666C57.0296 1.30511 56.8526 1.2831 56.6078 1.30293C56.4682 1.31424 56.3713 1.32462 56.2927 1.35983C56.205 1.39912 56.1392 1.41888 56.0649 1.44123L56.0649 1.44123L56.0563 1.44384C55.898 1.49147 55.7353 1.58859 55.6435 1.64341L55.6423 1.64409C55.5507 1.69878 55.4858 1.84398 55.4487 1.93912L55.4472 1.94286C55.413 2.03049 55.3189 2.27178 55.1629 2.37982C55.0086 2.48673 54.7817 2.68453 54.6136 2.74067C54.5318 2.76799 54.4764 2.79042 54.3845 2.79967C54.2498 2.81323 54.0454 2.77671 54.0129 2.75872C54.0508 2.7083 54.1581 2.61769 54.246 2.47903C54.3339 2.34037 54.4821 2.09304 54.5633 1.96242C54.6585 1.81832 54.7299 1.73605 54.8153 1.59558C54.8596 1.52274 54.8931 1.43976 54.9298 1.35479C54.967 1.26846 54.9939 1.1971 54.9928 1.08613C54.9903 0.837023 55.0107 0.679587 54.9506 0.546288C54.9199 0.478084 54.8351 0.375196 54.7423 0.321575C54.6673 0.278309 54.6019 0.200999 54.3533 0.151167C54.218 0.124049 54.0363 0.0730653 53.8317 0.0307714C53.6896 0.00140479 53.479 -0.0208357 53.1374 0.031589C52.9417 0.0616369 52.7056 0.115601 52.5755 0.147216C52.4455 0.178831 52.4224 0.187961 52.3512 0.208538C52.0294 0.301475 51.8992 0.297522 51.7367 0.4062C51.5806 0.510516 51.5208 0.555253 51.4588 0.646992C51.3603 0.792599 51.2559 0.896359 51.2063 0.987672C51.117 1.15181 51.0206 1.29972 50.9818 1.39867C50.9399 1.50557 50.8904 1.59674 50.9143 1.95793C50.9213 2.06401 50.9356 2.12321 50.94 2.27026Z" fill="#2C1A0E"/>
<path d="M106.641 31.9719C107.9 31.9719 109.038 32.2661 110.044 32.8635C111.059 33.4427 111.86 34.2419 112.441 35.2551L112.55 35.4475C113.03 36.331 113.292 37.3105 113.347 38.3792L113.36 38.3831V38.6975L113.362 38.9016L113.36 38.9026V44.0256C113.36 44.3803 113.241 44.6999 112.99 44.9504L112.983 44.9573L112.976 44.9641C112.723 45.1934 112.408 45.2971 112.064 45.2971C111.721 45.2971 111.406 45.1935 111.153 44.9641L111.14 44.9504C110.889 44.6999 110.77 44.3803 110.77 44.0256V43.7395C110.426 44.0665 110.043 44.3575 109.617 44.6067L109.615 44.6077C108.684 45.1459 107.627 45.4104 106.459 45.4104C105.228 45.4103 104.11 45.1223 103.119 44.5383L103.115 44.5354C102.132 43.94 101.349 43.1339 100.771 42.1233L100.768 42.1184C100.201 41.1003 99.9219 39.9583 99.9219 38.7024C99.9219 37.4302 100.209 36.2787 100.793 35.259L100.795 35.2551C101.391 34.2424 102.199 33.4429 103.215 32.8635C104.235 32.2665 105.38 31.972 106.641 31.9719ZM106.641 34.3782C105.849 34.3782 105.144 34.571 104.517 34.9524L104.511 34.9563C103.878 35.3273 103.376 35.834 103.003 36.4827C102.634 37.1237 102.444 37.8603 102.444 38.7024C102.444 39.5264 102.632 40.2631 103.002 40.9211C103.375 41.5701 103.877 42.0774 104.511 42.4485C105.139 42.8168 105.846 43.0031 106.641 43.0032C107.452 43.0032 108.157 42.8161 108.768 42.4504L108.771 42.4485C109.403 42.0782 109.895 41.5728 110.253 40.927L110.255 40.925C110.626 40.266 110.814 39.5279 110.814 38.7024C110.814 37.8603 110.626 37.1237 110.257 36.4827L110.253 36.4778C109.895 35.8319 109.403 35.3266 108.771 34.9563L108.762 34.9504C108.152 34.5718 107.449 34.3782 106.641 34.3782Z" fill="#2C1A0E" stroke="#2C1A0E" stroke-width="0.820796"/>
<path d="M96.915 31.9719C97.6231 31.972 98.2246 32.073 98.6787 32.3167C98.9162 32.4441 99.1176 32.6217 99.2354 32.8645C99.3546 33.1106 99.3654 33.3777 99.3047 33.6389L99.3018 33.6487C99.2275 33.9356 99.0767 34.2058 98.7979 34.3567L98.7988 34.3577C98.7963 34.3591 98.7936 34.3601 98.791 34.3616C98.7883 34.363 98.7859 34.365 98.7832 34.3665L98.7822 34.3655C98.5613 34.4869 98.3103 34.5209 98.0566 34.5022H98.0537C97.8654 34.4872 97.647 34.4724 97.3984 34.4573L97.3857 34.4563C96.6129 34.3851 95.9423 34.472 95.3643 34.7024L95.3594 34.7043C94.7968 34.9204 94.3532 35.2517 94.0195 35.6995L94.0205 35.7004C93.7077 36.1395 93.5439 36.67 93.5439 37.3108V44.1331C93.5439 44.4809 93.4484 44.8078 93.207 45.0569C92.9638 45.3079 92.6396 45.4104 92.293 45.4104C91.9465 45.4103 91.623 45.3078 91.3799 45.0569C91.1385 44.8078 91.043 44.4809 91.043 44.1331V33.386C91.043 33.038 91.1384 32.7103 91.3799 32.4612C91.623 32.2106 91.9466 32.1087 92.293 32.1086C92.6395 32.1086 92.9638 32.2104 93.207 32.4612C93.4262 32.6873 93.5237 32.9783 93.54 33.2903C93.7909 33.0584 94.0623 32.8514 94.3555 32.6711L94.3594 32.6692C95.1331 32.2035 95.9883 31.9719 96.915 31.9719Z" fill="#2C1A0E" stroke="#2C1A0E" stroke-width="0.820796"/>
<path d="M86.3359 31.9719C87.0641 31.9719 87.6802 32.0731 88.1445 32.3147C88.3865 32.4406 88.5941 32.6169 88.7158 32.8606C88.8397 33.1086 88.8503 33.3785 88.7871 33.6418L88.7852 33.6516C88.7077 33.9422 88.5509 34.2111 88.2676 34.3596L88.2686 34.3606C88.2668 34.3616 88.2645 34.3616 88.2627 34.3625C88.2592 34.3643 88.2564 34.3676 88.2529 34.3694L88.252 34.3684C88.0283 34.4877 87.7737 34.5216 87.5156 34.5032L87.5137 34.5022C87.3192 34.4872 87.0934 34.4724 86.8369 34.4573L86.8242 34.4563C86.0237 34.3848 85.3285 34.4724 84.7285 34.7043L84.7236 34.7063C84.1399 34.9237 83.6812 35.2563 83.3369 35.7043L83.3379 35.7053C83.0155 36.1441 82.8477 36.6728 82.8477 37.3108V44.1331C82.8476 44.4843 82.7474 44.8132 82.499 45.0618C82.2505 45.3103 81.9216 45.4104 81.5703 45.4104C81.219 45.4103 80.8901 45.3104 80.6416 45.0618C80.3933 44.8132 80.294 44.4843 80.2939 44.1331V33.386C80.294 33.0347 80.3933 32.7059 80.6416 32.4573C80.8901 32.2087 81.219 32.1087 81.5703 32.1086C81.9217 32.1086 82.2505 32.2086 82.499 32.4573C82.7292 32.6876 82.8309 32.9867 82.8447 33.3088C83.11 33.068 83.3977 32.8538 83.709 32.6682L83.7119 32.6663C84.5071 32.2021 85.385 31.972 86.3359 31.9719Z" fill="#2C1A0E" stroke="#2C1A0E" stroke-width="0.820796"/>
<path d="M72.1846 31.9719C73.3996 31.9719 74.4765 32.25 75.3994 32.8215C76.3334 33.3757 77.0557 34.1518 77.5605 35.1399C77.9149 35.8335 78.1385 36.5913 78.2422 37.4084H78.54L78.2666 37.6038C78.2955 37.8875 78.3115 38.1782 78.3115 38.4758C78.3115 38.8113 78.2022 39.1176 77.9629 39.3557L77.9551 39.3635L77.9473 39.3704C77.7062 39.5861 77.4045 39.6789 77.0811 39.679H68.3564C68.4436 40.1416 68.5945 40.5645 68.8086 40.9495C69.183 41.5955 69.6854 42.1008 70.3193 42.4709C70.9472 42.8374 71.6789 43.0266 72.5264 43.0266C73.024 43.0266 73.524 42.9439 74.0283 42.7776C74.5575 42.5926 74.9581 42.3731 75.2422 42.1292L75.25 42.1213H75.251C75.4825 41.9331 75.7531 41.8326 76.0498 41.8264C76.3539 41.8048 76.6404 41.8822 76.8809 42.0735L76.8926 42.0823L76.9033 42.092C77.1541 42.3223 77.321 42.6118 77.3301 42.9543H77.3311C77.3313 42.9576 77.3309 42.9609 77.3311 42.9641C77.3312 42.9706 77.332 42.9771 77.332 42.9836H77.3311C77.3467 43.3302 77.1961 43.6222 76.9346 43.8401L76.9355 43.8411C76.3902 44.3013 75.7081 44.6775 74.9004 44.9768L74.8936 44.9797V44.9788C74.0821 45.2636 73.2925 45.4104 72.5264 45.4104C71.236 45.4104 70.0724 45.1319 69.0479 44.5657L69.041 44.5627C68.0365 43.9826 67.2414 43.1817 66.6592 42.1682L66.6562 42.1643C66.0868 41.1446 65.8076 39.9868 65.8076 38.7024C65.8076 37.4077 66.0696 36.2514 66.6074 35.2463L66.6084 35.2444C67.158 34.2314 67.9142 33.4296 68.874 32.8469C69.8412 32.2599 70.9493 31.9719 72.1846 31.9719ZM72.1846 34.3557C71.3864 34.3557 70.7047 34.5426 70.125 34.9045C69.5406 35.2695 69.0814 35.7762 68.749 36.4358L68.75 36.4368C68.6023 36.737 68.4885 37.0608 68.4082 37.4084H75.7822C75.7093 37.0275 75.5941 36.6727 75.4355 36.343C75.1333 35.7145 74.7063 35.2306 74.1523 34.8811L74.1484 34.8792C73.6185 34.5365 72.9699 34.3557 72.1846 34.3557Z" fill="#2C1A0E" stroke="#2C1A0E" stroke-width="0.820796"/>
<path d="M59.1885 27.9998C59.5503 27.9998 59.8778 28.1172 60.1357 28.3689C60.3944 28.6214 60.5186 28.9458 60.5186 29.3074V32.4636H62.7715C63.0983 32.4637 63.3937 32.5719 63.6309 32.7957H63.6318C63.6346 32.7981 63.6369 32.801 63.6396 32.8035C63.6421 32.8058 63.6451 32.808 63.6475 32.8103H63.6465C63.891 33.0331 64.0068 33.3281 64.0068 33.656C64.0068 33.9839 63.8815 34.2731 63.6475 34.5017L63.6396 34.5095L63.6318 34.5164C63.3903 34.7286 63.0933 34.8259 62.7715 34.8259H60.5186V40.5593C60.5186 41.2513 60.7242 41.7899 61.1143 42.2097C61.5008 42.6109 61.994 42.8181 62.6299 42.8181H63.2666C63.6203 42.8182 63.9375 42.9419 64.1797 43.2019C64.4167 43.4566 64.5254 43.776 64.5254 44.1257C64.5253 44.4991 64.3839 44.8267 64.1055 45.0759L64.0986 45.0818L64.0908 45.0876C63.8175 45.31 63.4859 45.4099 63.125 45.4099H62.6299C61.7315 45.4099 60.9127 45.2022 60.1846 44.7791L60.1807 44.7771C59.4749 44.3569 58.9146 43.7833 58.5029 43.0632L58.501 43.0603C58.0861 42.3177 57.8829 41.4803 57.8828 40.5593V34.8259H56.7617C56.4399 34.8259 56.143 34.7286 55.9014 34.5164L55.8936 34.5095L55.8857 34.5017C55.6515 34.273 55.5264 33.9841 55.5264 33.656C55.5264 33.328 55.642 33.0331 55.8867 32.8103H55.8857C55.8881 32.808 55.8903 32.8057 55.8926 32.8035C55.8955 32.8009 55.8984 32.7982 55.9014 32.7957H55.9023C56.1395 32.572 56.435 32.4636 56.7617 32.4636H57.8828V29.3074C57.8828 28.9576 57.9914 28.6383 58.2285 28.3835L58.2354 28.3757L58.2422 28.3689C58.5 28.1173 58.8269 27.9999 59.1885 27.9998Z" fill="#2C1A0E" stroke="#2C1A0E" stroke-width="0.820796"/>
<path d="M41.0996 31.9719C42.3794 31.9719 43.5359 32.2661 44.5586 32.8625H44.5596C45.5918 33.4408 46.4063 34.2391 46.998 35.2522H46.999C47.5581 36.1852 47.8616 37.2298 47.9219 38.3772L47.9355 38.3811V38.6965L47.9385 38.9036L47.9355 38.9055V44.0256C47.9355 44.3826 47.8137 44.7034 47.5586 44.9534L47.5508 44.9602L47.5439 44.9661C47.2879 45.1942 46.97 45.2971 46.624 45.2971C46.2779 45.2971 45.9593 45.1943 45.7031 44.9661L45.6963 44.9602L45.6895 44.9534C45.4343 44.7033 45.3115 44.3827 45.3115 44.0256V43.7278C44.9579 44.0604 44.5633 44.3553 44.124 44.6077L44.1221 44.6096C43.1753 45.1468 42.1024 45.4103 40.915 45.4104C39.6633 45.4104 38.5276 45.1224 37.5195 44.5393L37.5156 44.5374C36.5153 43.9427 35.7175 43.1364 35.1279 42.1252L35.126 42.1213C34.5486 41.1027 34.2637 39.9597 34.2637 38.7024C34.2637 37.4289 34.5566 36.2763 35.1514 35.2561L35.1543 35.2522C35.7605 34.2406 36.5813 33.4428 37.6123 32.8645C38.6507 32.2668 39.8168 31.9719 41.0996 31.9719ZM41.0996 34.3782C40.2904 34.3782 39.5699 34.5719 38.9287 34.9543L38.9238 34.9583C38.2774 35.3301 37.7659 35.8371 37.3857 36.4856C37.0102 37.1262 36.8174 37.8616 36.8174 38.7024C36.8174 39.5251 37.0091 40.2605 37.3857 40.9182L37.5342 41.1555C37.8955 41.6922 38.3581 42.1211 38.9238 42.4465C39.5657 42.8157 40.2877 43.0032 41.0996 43.0032C41.9285 43.0032 42.6489 42.8151 43.2725 42.4485L43.2754 42.4465C43.9206 42.0754 44.4228 41.5695 44.7871 40.9241L44.7881 40.9221C45.1661 40.2636 45.3584 39.5266 45.3584 38.7024C45.3584 37.8616 45.1655 37.1262 44.79 36.4856L44.7871 36.4797C44.4228 35.8344 43.9205 35.3294 43.2754 34.9583L43.2666 34.9524C42.6439 34.5727 41.9257 34.3782 41.0996 34.3782Z" fill="#2C1A0E" stroke="#2C1A0E" stroke-width="0.820796"/>
<path d="M30.2832 26.5979C30.6327 26.5979 30.9468 26.7148 31.1953 26.9583C31.4645 27.205 31.5791 27.5379 31.5791 27.9006V38.7151C31.5472 39.9694 31.2346 41.1137 30.6377 42.1389C30.0568 43.1474 29.2559 43.9466 28.2412 44.5315L28.2402 44.5305C27.2348 45.1186 26.1046 45.4104 24.8594 45.4104C23.5989 45.4104 22.4532 45.1197 21.4326 44.5315L21.4277 44.5286C20.4143 43.9281 19.6075 43.1145 19.0127 42.093L19.0107 42.0891C18.4276 41.0597 18.1406 39.8976 18.1406 38.6135C18.1406 37.3458 18.4193 36.1931 18.9854 35.1653L18.9883 35.1604C19.4947 34.2666 20.1581 33.5366 20.9766 32.9749L21.3359 32.7444C22.3272 32.1389 23.445 31.8392 24.6777 31.8391C25.7509 31.8391 26.7325 32.0743 27.6133 32.55C28.1291 32.8198 28.5878 33.1465 28.9883 33.5276V27.9006C28.9883 27.5446 29.098 27.2173 29.3564 26.9719V26.9709C29.6071 26.7182 29.9273 26.5979 30.2832 26.5979ZM24.8594 34.2629C24.0657 34.263 23.3598 34.4515 22.7314 34.8235C22.1003 35.1971 21.5981 35.7154 21.2236 36.387L21.2217 36.3899C20.8516 37.0397 20.6631 37.7777 20.6631 38.6135C20.6631 39.4658 20.8523 40.2109 21.2217 40.8596C21.5952 41.5155 22.0977 42.0357 22.7314 42.426L22.9707 42.5569C23.5377 42.8422 24.1648 42.9875 24.8594 42.9875C25.6699 42.9875 26.3741 42.7973 26.9844 42.428C27.6182 42.0383 28.112 41.5194 28.4707 40.8655L28.4746 40.8596C28.8441 40.2109 29.0332 39.4658 29.0332 38.6135C29.0332 37.7777 28.8447 37.0397 28.4746 36.3899L28.4697 36.3811C28.1108 35.7127 27.6179 35.1963 26.9883 34.8235L26.9844 34.8215C26.3741 34.4522 25.6698 34.2629 24.8594 34.2629Z" fill="#2C1A0E" stroke="#2C1A0E" stroke-width="0.820796"/>
<path d="M5.9128 23.5656C5.9128 23.5656 7.41732 22.7621 9.00053 23.547C9.00053 23.547 9.72233 33.4302 9.86311 35.7225C10.0916 39.444 10.0336 42.9596 7.22761 42.9765C4.42182 42.9934 4.36014 39.2862 5.03351 34.6041C5.70666 29.9219 5.9128 23.5656 5.9128 23.5656Z" fill="#2C1A0E"/>
<path d="M6.38879 30.423C6.38879 30.423 6.38711 30.4214 6.38385 30.4186C6.38476 30.4202 6.39418 30.4293 6.39239 30.4282C6.38556 30.4236 6.37536 30.4166 6.36204 30.4072C6.32799 30.3838 6.26673 30.3427 6.18215 30.3001C6.09758 30.2581 5.99102 30.2138 5.87061 30.1848C5.74966 30.1585 5.61738 30.1403 5.47381 30.1558C5.33035 30.1696 5.17375 30.2056 4.99891 30.2879C4.82484 30.3681 4.63362 30.4892 4.43808 30.654C4.24177 30.8189 4.04558 31.0234 3.85025 31.2604C3.83264 31.281 3.82756 31.2896 3.81927 31.3011L3.79504 31.3345L3.73963 31.4125C3.70048 31.4679 3.66313 31.5253 3.62723 31.584C3.5551 31.7012 3.4887 31.8238 3.42812 31.951C3.1867 32.4607 3.04367 33.0477 2.98168 33.6275C2.91825 34.2073 2.93103 34.7758 2.97333 35.2619C3.05962 36.2381 3.2552 36.8778 3.23773 36.8109C3.4408 37.6393 2.937 38.4763 2.11264 38.6803C1.28817 38.8843 0.455191 38.378 0.252122 37.5496C0.239019 37.485 0.0598416 36.6602 0.0456062 35.3872C0.0408914 34.7515 0.079771 34.0023 0.233064 33.1933C0.385481 32.3871 0.661075 31.5134 1.12978 30.7023C1.2469 30.5003 1.37565 30.303 1.51516 30.1136C1.58464 30.0187 1.6568 29.9258 1.73221 29.8356C1.77053 29.79 1.80485 29.7475 1.85016 29.697L1.91487 29.6244C1.93614 29.6006 1.96029 29.5735 1.97381 29.5602C2.27132 29.2511 2.59754 28.9504 2.95891 28.6913C3.31973 28.4316 3.71892 28.2098 4.14251 28.0572C4.56385 27.9019 5.01233 27.827 5.42748 27.829C5.84394 27.8273 6.22198 27.9087 6.53545 28.0116C6.84951 28.1176 7.10114 28.2495 7.29907 28.3706C7.49666 28.4929 7.64123 28.6069 7.74325 28.6933C7.79381 28.7361 7.83486 28.774 7.86481 28.8022C7.90015 28.8368 7.91843 28.8545 7.91843 28.8545C8.35083 29.2768 8.3607 29.9712 7.94048 30.4058C7.53367 30.8263 6.87296 30.849 6.43891 30.4671L6.38879 30.423Z" fill="#2C1A0E"/>
<path d="M8.80604 31.7691C8.80604 31.7691 8.81471 31.7696 8.83138 31.7706C8.8515 31.7723 8.8813 31.7749 8.9201 31.778C8.98814 31.784 9.07888 31.7937 9.19287 31.8091C9.41908 31.8414 9.73321 31.895 10.1046 32.002C10.2907 32.0532 10.4902 32.1224 10.7006 32.2025C10.9099 32.2877 11.1306 32.3831 11.3535 32.5051C11.5768 32.625 11.8042 32.765 12.0257 32.93C12.25 33.0902 12.4631 33.2834 12.6686 33.4869C12.8683 33.6972 13.0599 33.9215 13.2224 34.1634C13.2631 34.2239 13.3036 34.2842 13.3439 34.3443C13.3804 34.4066 13.4167 34.4687 13.4527 34.5304C13.5268 34.6536 13.5889 34.7798 13.6479 34.9055C13.7109 35.0302 13.7594 35.1561 13.8075 35.28C13.8587 35.4037 13.8975 35.5258 13.9337 35.6455C13.9719 35.7653 14.0063 35.8822 14.0305 35.995C14.056 36.1078 14.0848 36.2183 14.1031 36.3229C14.1365 36.5312 14.1731 36.7261 14.1847 36.8931C14.1999 37.0611 14.2168 37.2105 14.2175 37.3281C14.2244 37.5669 14.2282 37.7033 14.2282 37.7033C14.253 38.57 13.5854 39.293 12.7371 39.3179C11.8889 39.3429 11.1811 38.6607 11.1564 37.794C11.1544 37.7256 11.1568 37.6582 11.1632 37.5919L11.1689 37.5377C11.1689 37.5377 11.1773 37.4564 11.1921 37.314C11.2033 37.2411 11.202 37.1592 11.2075 37.062C11.2165 36.9629 11.2069 36.8614 11.2075 36.7446C11.2062 36.6871 11.1974 36.6314 11.1935 36.5707C11.1906 36.5091 11.181 36.4498 11.1703 36.3889C11.1613 36.3271 11.152 36.2633 11.135 36.2028C11.1206 36.1408 11.108 36.0756 11.0859 36.0152C11.0672 35.9525 11.0482 35.8884 11.0213 35.828L10.985 35.7339L10.9404 35.643C10.8833 35.5189 10.8073 35.4022 10.727 35.2842C10.6394 35.1718 10.5497 35.0562 10.4408 34.9545C10.3363 34.8494 10.2201 34.7528 10.0997 34.6644C9.98057 34.5744 9.85265 34.4978 9.72965 34.4255C9.60378 34.3572 9.48172 34.2935 9.36363 34.2433C9.12942 34.1385 8.92168 34.0735 8.78198 34.033C8.71264 34.0135 8.65844 33.9998 8.62739 33.9924C8.62015 33.9905 8.6137 33.9889 8.60813 33.9875C8.60613 33.9866 8.60446 33.9858 8.60301 33.9853C8.60167 33.984 8.58677 33.9822 8.58944 33.9824C7.99124 33.9211 7.5547 33.3761 7.61447 32.7648C7.67447 32.1537 8.20784 31.7078 8.80604 31.7691Z" fill="#2C1A0E"/>
</svg>
